Mozilla Headline-ExtraLight.ufo
<glyph name="exclam" format="1">
  <advance width="261.53448"/>
  <unicode hex="0021"/>
  <outline>
    <contour>
      <point x="112" y="169" type="line"/>
      <point x="149" y="169" type="line"/>
      <point x="165" y="637" type="line"/>
      <point x="165" y="690" type="line"/>
      <point x="96" y="690" type="line"/>
      <point x="96" y="637" type="line"/>
    </contour>
    <contour>
      <point x="89" y="0" type="line"/>
      <point x="172" y="0" type="line"/>
      <point x="172" y="80" type="line"/>
      <point x="89" y="80" type="line"/>
    </contour>
  </outline>
</glyph>
<glyph name="numbersign" format="1">
  <advance width="629.64655"/>
  <unicode hex="0023"/>
  <outline>
    <contour>
      <point x="113" y="0" type="line"/>
      <point x="168" y="0" type="line"/>
      <point x="283" y="690" type="line"/>
      <point x="229" y="690" type="line"/>
    </contour>
    <contour>
      <point x="346" y="0" type="line"/>
      <point x="401" y="0" type="line"/>
      <point x="516" y="690" type="line"/>
      <point x="462" y="690" type="line"/>
    </contour>
    <contour>
      <point x="88" y="438" type="line"/>
      <point x="577" y="438" type="line"/>
      <point x="577" y="489" type="line"/>
      <point x="88" y="489" type="line"/>
    </contour>
    <contour>
      <point x="53" y="201" type="line"/>
      <point x="541" y="201" type="line"/>
      <point x="541" y="252" type="line"/>
      <point x="53" y="252" type="line"/>
    </contour>
  </outline>
</glyph>
<glyph name="dollar" format="1">
  <advance width="616.00862"/>
  <unicode hex="0024"/>
  <outline>
    <contour>
      <point x="310" y="-5" type="curve" smooth="yes"/>
      <point x="469" y="-5"/>
      <point x="558" y="64"/>
      <point x="558" y="186" type="curve" smooth="yes"/>
      <point x="558" y="282"/>
      <point x="506" y="333"/>
      <point x="390" y="360" type="curve" smooth="yes"/>
      <point x="252" y="389" type="line" smooth="yes"/>
      <point x="161" y="409"/>
      <point x="124" y="443"/>
      <point x="124" y="504" type="curve" smooth="yes"/>
      <point x="124" y="512" type="line" smooth="yes"/>
      <point x="124" y="594"/>
      <point x="191" y="639"/>
      <point x="305" y="639" type="curve" smooth="yes"/>
      <point x="434" y="639"/>
      <point x="494" y="576"/>
      <point x="494" y="467" type="curve" smooth="yes"/>
      <point x="494" y="459" type="line"/>
      <point x="558" y="459" type="line"/>
      <point x="539" y="627"/>
      <point x="460" y="695"/>
      <point x="305" y="695" type="curve" smooth="yes"/>
      <point x="149" y="695"/>
      <point x="60" y="626"/>
      <point x="60" y="503" type="curve" smooth="yes"/>
      <point x="60" y="408"/>
      <point x="112" y="357"/>
      <point x="226" y="330" type="curve" smooth="yes"/>
      <point x="364" y="301" type="line" smooth="yes"/>
      <point x="457" y="280"/>
      <point x="494" y="248"/>
      <point x="494" y="186" type="curve" smooth="yes"/>
      <point x="494" y="178" type="line" smooth="yes"/>
      <point x="494" y="96"/>
      <point x="426" y="51"/>
      <point x="310" y="51" type="curve" smooth="yes"/>
      <point x="182" y="51"/>
      <point x="120" y="112"/>
      <point x="120" y="222" type="curve" smooth="yes"/>
      <point x="120" y="231" type="line"/>
      <point x="55" y="231" type="line"/>
      <point x="74" y="63"/>
      <point x="153" y="-5"/>
    </contour>
    <contour>
      <point x="281" y="-92" type="line"/>
      <point x="336" y="-92" type="line"/>
      <point x="336" y="24" type="line"/>
      <point x="281" y="24" type="line"/>
    </contour>
    <contour>
      <point x="279" y="660" type="line"/>
      <point x="334" y="660" type="line"/>
      <point x="334" y="782" type="line"/>
      <point x="279" y="782" type="line"/>
    </contour>
  </outline>
</glyph>
<glyph name="percent" format="1">
  <advance width="781.43966"/>
  <unicode hex="0025"/>
  <outline>
    <contour>
      <point x="95" y="0" type="line"/>
      <point x="160" y="0" type="line"/>
      <point x="386" y="322" type="line"/>
      <point x="321" y="322" type="line"/>
    </contour>
    <contour>
      <point x="396" y="368" type="line"/>
      <point x="461" y="368" type="line"/>
      <point x="687" y="690" type="line"/>
      <point x="622" y="690" type="line"/>
    </contour>
    <contour>
      <point x="221" y="360" type="curve" smooth="yes"/>
      <point x="340" y="360"/>
      <point x="397" y="436"/>
      <point x="397" y="531" type="curve" smooth="yes"/>
      <point x="397" y="624"/>
      <point x="340" y="700"/>
      <point x="221" y="700" type="curve" smooth="yes"/>
      <point x="102" y="700"/>
      <point x="46" y="624"/>
      <point x="46" y="531" type="curve" smooth="yes"/>
      <point x="46" y="436"/>
      <point x="102" y="360"/>
    </contour>
    <contour>
      <point x="221" y="410" type="curve" smooth="yes"/>
      <point x="141" y="410"/>
      <point x="104" y="449"/>
      <point x="104" y="518" type="curve" smooth="yes"/>
      <point x="104" y="542" type="line" smooth="yes"/>
      <point x="104" y="611"/>
      <point x="141" y="650"/>
      <point x="221" y="650" type="curve" smooth="yes"/>
      <point x="301" y="650"/>
      <point x="338" y="611"/>
      <point x="338" y="542" type="curve" smooth="yes"/>
      <point x="338" y="518" type="line" smooth="yes"/>
      <point x="338" y="449"/>
      <point x="301" y="410"/>
    </contour>
    <contour>
      <point x="560" y="-10" type="curve" smooth="yes"/>
      <point x="679" y="-10"/>
      <point x="736" y="66"/>
      <point x="736" y="160" type="curve" smooth="yes"/>
      <point x="736" y="254"/>
      <point x="679" y="330"/>
      <point x="560" y="330" type="curve" smooth="yes"/>
      <point x="441" y="330"/>
      <point x="385" y="254"/>
      <point x="385" y="160" type="curve" smooth="yes"/>
      <point x="385" y="66"/>
      <point x="441" y="-10"/>
    </contour>
    <contour>
      <point x="560" y="40" type="curve" smooth="yes"/>
      <point x="481" y="40"/>
      <point x="443" y="79"/>
      <point x="443" y="148" type="curve" smooth="yes"/>
      <point x="443" y="172" type="line" smooth="yes"/>
      <point x="443" y="241"/>
      <point x="481" y="280"/>
      <point x="560" y="280" type="curve" smooth="yes"/>
      <point x="640" y="280"/>
      <point x="677" y="241"/>
      <point x="677" y="172" type="curve" smooth="yes"/>
      <point x="677" y="148" type="line" smooth="yes"/>
      <point x="677" y="79"/>
      <point x="640" y="40"/>
    </contour>
  </outline>
</glyph>
<glyph name="parenright" format="1">
  <advance width="305.83621"/>
  <unicode hex="0029"/>
  <outline>
    <contour>
      <point x="84" y="782" type="curve"/>
      <point x="20" y="782" type="line"/>
      <point x="142" y="645"/>
      <point x="184" y="538"/>
      <point x="184" y="371" type="curve" smooth="yes"/>
      <point x="184" y="319" type="line" smooth="yes"/>
      <point x="184" y="152"/>
      <point x="142" y="45"/>
      <point x="20" y="-92" type="curve"/>
      <point x="84" y="-92" type="line"/>
      <point x="197" y="22"/>
      <point x="246" y="154"/>
      <point x="246" y="345" type="curve" smooth="yes"/>
      <point x="246" y="536"/>
      <point x="197" y="668"/>
    </contour>
  </outline>
</glyph>
<glyph name="asterisk" format="1">
  <advance width="435.71552"/>
  <unicode hex="002A"/>
  <outline>
    <contour>
      <point x="65" y="559" type="line"/>
      <point x="130" y="537" type="line"/>
      <point x="190" y="534" type="line"/>
      <point x="192" y="527" type="line"/>
      <point x="146" y="489" type="line"/>
      <point x="105" y="433" type="line"/>
      <point x="152" y="400" type="line"/>
      <point x="192" y="456" type="line"/>
      <point x="214" y="511" type="line"/>
      <point x="222" y="511" type="line"/>
      <point x="243" y="455" type="line"/>
      <point x="283" y="400" type="line"/>
      <point x="329" y="433" type="line"/>
      <point x="289" y="488" type="line"/>
      <point x="242" y="527" type="line"/>
      <point x="244" y="534" type="line"/>
      <point x="305" y="537" type="line"/>
      <point x="370" y="558" type="line"/>
      <point x="353" y="612" type="line"/>
      <point x="287" y="591" type="line"/>
      <point x="237" y="558" type="line"/>
      <point x="231" y="562" type="line"/>
      <point x="246" y="621" type="line"/>
      <point x="246" y="690" type="line"/>
      <point x="189" y="690" type="line"/>
      <point x="189" y="621" type="line"/>
      <point x="205" y="562" type="line"/>
      <point x="199" y="558" type="line"/>
      <point x="149" y="592" type="line"/>
      <point x="82" y="613" type="line"/>
    </contour>
  </outline>
</glyph>
<glyph name="plus" format="1">
  <advance width="474.58621"/>
  <unicode hex="002B"/>
  <outline>
    <contour>
      <point x="210" y="135" type="line"/>
      <point x="264" y="135" type="line"/>
      <point x="264" y="539" type="line"/>
      <point x="210" y="539" type="line"/>
    </contour>
    <contour>
      <point x="40" y="312" type="line"/>
      <point x="434" y="312" type="line"/>
      <point x="434" y="362" type="line"/>
      <point x="40" y="362" type="line"/>
    </contour>
  </outline>
</glyph>
<glyph name="hyphen" format="1">
  <advance width="338.68966"/>
  <unicode hex="002D"/>
  <outline>
    <contour>
      <point x="59" y="259" type="line"/>
      <point x="279" y="259" type="line"/>
      <point x="279" y="309" type="line"/>
      <point x="59" y="309" type="line"/>
    </contour>
  </outline>
</glyph>
<glyph name="zero" format="1">
  <advance width="660.18966"/>
  <unicode hex="0030"/>
  <outline>
    <contour>
      <point x="330" y="-10" type="curve" smooth="yes"/>
      <point x="507" y="-10"/>
      <point x="596" y="101"/>
      <point x="596" y="345" type="curve" smooth="yes"/>
      <point x="596" y="589"/>
      <point x="507" y="700"/>
      <point x="330" y="700" type="curve" smooth="yes"/>
      <point x="153" y="700"/>
      <point x="64" y="589"/>
      <point x="64" y="345" type="curve" smooth="yes"/>
      <point x="64" y="101"/>
      <point x="153" y="-10"/>
    </contour>
    <contour>
      <point x="330" y="46" type="curve" smooth="yes"/>
      <point x="195" y="46"/>
      <point x="132" y="121"/>
      <point x="132" y="282" type="curve" smooth="yes"/>
      <point x="132" y="408" type="line" smooth="yes"/>
      <point x="132" y="569"/>
      <point x="195" y="644"/>
      <point x="330" y="644" type="curve" smooth="yes"/>
      <point x="465" y="644"/>
      <point x="528" y="569"/>
      <point x="528" y="408" type="curve" smooth="yes"/>
      <point x="528" y="282" type="line" smooth="yes"/>
      <point x="528" y="121"/>
      <point x="465" y="46"/>
    </contour>
    <contour>
      <point x="158" y="73" type="line"/>
      <point x="202" y="56" type="line"/>
      <point x="502" y="617" type="line"/>
      <point x="458" y="634" type="line"/>
    </contour>
  </outline>
</glyph>
<glyph name="two" format="1">
  <advance width="613.66379"/>
  <unicode hex="0032"/>
  <outline>
    <contour>
      <point x="67" y="119" type="curve" smooth="yes"/>
      <point x="67" y="0" type="line"/>
      <point x="539" y="0" type="line"/>
      <point x="539" y="200" type="line"/>
      <point x="483" y="200" type="line"/>
      <point x="483" y="53" type="line"/>
      <point x="96" y="53" type="line"/>
      <point x="130" y="29" type="line"/>
      <point x="130" y="123" type="line" smooth="yes"/>
      <point x="130" y="214"/>
      <point x="165" y="257"/>
      <point x="262" y="285" type="curve" smooth="yes"/>
      <point x="381" y="319" type="line" smooth="yes"/>
      <point x="497" y="354"/>
      <point x="547" y="407"/>
      <point x="547" y="499" type="curve" smooth="yes"/>
      <point x="547" y="505" type="line" smooth="yes"/>
      <point x="547" y="627"/>
      <point x="458" y="700"/>
      <point x="310" y="700" type="curve" smooth="yes"/>
      <point x="161" y="700"/>
      <point x="85" y="626"/>
      <point x="68" y="459" type="curve"/>
      <point x="133" y="459" type="line"/>
      <point x="133" y="467" type="line" smooth="yes"/>
      <point x="133" y="583"/>
      <point x="193" y="643"/>
      <point x="310" y="643" type="curve" smooth="yes"/>
      <point x="417" y="643"/>
      <point x="484" y="594"/>
      <point x="484" y="509" type="curve" smooth="yes"/>
      <point x="484" y="495" type="line" smooth="yes"/>
      <point x="484" y="434"/>
      <point x="448" y="401"/>
      <point x="353" y="373" type="curve" smooth="yes"/>
      <point x="235" y="338" type="line" smooth="yes"/>
      <point x="118" y="303"/>
      <point x="67" y="241"/>
    </contour>
  </outline>
</glyph>
<glyph name="four" format="1">
  <advance width="583.75"/>
  <unicode hex="0034"/>
  <outline>
    <contour>
      <point x="49" y="187" type="line"/>
      <point x="551" y="187" type="line"/>
      <point x="551" y="239" type="line"/>
      <point x="114" y="239" type="line"/>
      <point x="321" y="690" type="line"/>
      <point x="256" y="690" type="line"/>
      <point x="49" y="239" type="line"/>
    </contour>
    <contour>
      <point x="358" y="0" type="line"/>
      <point x="422" y="0" type="line"/>
      <point x="422" y="419" type="line"/>
      <point x="384" y="419" type="line"/>
      <point x="358" y="312" type="line"/>
    </contour>
  </outline>
</glyph>
<glyph name="five" format="1">
  <advance width="628.56034"/>
  <unicode hex="0035"/>
  <outline>
    <contour>
      <point x="320" y="-10" type="curve" smooth="yes"/>
      <point x="477" y="-10"/>
      <point x="562" y="70"/>
      <point x="562" y="222" type="curve" smooth="yes"/>
      <point x="562" y="369"/>
      <point x="477" y="450"/>
      <point x="334" y="450" type="curve" smooth="yes"/>
      <point x="249" y="450"/>
      <point x="184" y="421"/>
      <point x="158" y="370" type="curve"/>
      <point x="136" y="370" type="line"/>
      <point x="143" y="433"/>
      <point x="146" y="465"/>
      <point x="146" y="496" type="curve" smooth="yes"/>
      <point x="146" y="637" type="line"/>
      <point x="493" y="637" type="line"/>
      <point x="493" y="494" type="line"/>
      <point x="548" y="494" type="line"/>
      <point x="548" y="690" type="line"/>
      <point x="84" y="690" type="line"/>
      <point x="84" y="323" type="line"/>
      <point x="148" y="323" type="line"/>
      <point x="183" y="363"/>
      <point x="239" y="396"/>
      <point x="319" y="396" type="curve" smooth="yes"/>
      <point x="437" y="396"/>
      <point x="497" y="340"/>
      <point x="497" y="226" type="curve" smooth="yes"/>
      <point x="497" y="216" type="line" smooth="yes"/>
      <point x="497" y="102"/>
      <point x="437" y="46"/>
      <point x="320" y="46" type="curve" smooth="yes"/>
      <point x="202" y="46"/>
      <point x="140" y="104"/>
      <point x="140" y="222" type="curve" smooth="yes"/>
      <point x="140" y="231" type="line"/>
      <point x="76" y="231" type="line"/>
      <point x="94" y="61"/>
      <point x="170" y="-10"/>
    </contour>
  </outline>
</glyph>
<glyph name="six" format="1">
  <advance width="621.37931"/>
  <unicode hex="0036"/>
  <outline>
    <contour>
      <point x="318" y="-10" type="curve" smooth="yes"/>
      <point x="475" y="-10"/>
      <point x="562" y="70"/>
      <point x="562" y="222" type="curve" smooth="yes"/>
      <point x="562" y="369"/>
      <point x="477" y="450"/>
      <point x="333" y="450" type="curve" smooth="yes"/>
      <point x="244" y="450"/>
      <point x="187" y="421"/>
      <point x="151" y="353" type="curve"/>
      <point x="130" y="353" type="line"/>
      <point x="135" y="400"/>
      <point x="137" y="429"/>
      <point x="137" y="454" type="curve" smooth="yes"/>
      <point x="137" y="457" type="line" smooth="yes"/>
      <point x="137" y="578"/>
      <point x="202" y="644"/>
      <point x="316" y="644" type="curve" smooth="yes"/>
      <point x="425" y="644"/>
      <point x="481" y="579"/>
      <point x="481" y="506" type="curve" smooth="yes"/>
      <point x="481" y="506" type="line"/>
      <point x="547" y="506" type="line"/>
      <point x="521" y="642"/>
      <point x="448" y="700"/>
      <point x="316" y="700" type="curve" smooth="yes"/>
      <point x="141" y="700"/>
      <point x="67" y="599"/>
      <point x="67" y="345" type="curve" smooth="yes"/>
      <point x="67" y="89"/>
      <point x="141" y="-10"/>
    </contour>
    <contour>
      <point x="319" y="46" type="curve" smooth="yes"/>
      <point x="207" y="46"/>
      <point x="145" y="104"/>
      <point x="145" y="216" type="curve" smooth="yes"/>
      <point x="145" y="226" type="line" smooth="yes"/>
      <point x="145" y="338"/>
      <point x="207" y="396"/>
      <point x="319" y="396" type="curve" smooth="yes"/>
      <point x="436" y="396"/>
      <point x="496" y="340"/>
      <point x="496" y="226" type="curve" smooth="yes"/>
      <point x="496" y="216" type="line" smooth="yes"/>
      <point x="496" y="102"/>
      <point x="436" y="46"/>
    </contour>
  </outline>
</glyph>
<glyph name="eight" format="1">
  <advance width="630.27586"/>
  <unicode hex="0038"/>
  <outline>
    <contour>
      <point x="315" y="-10" type="curve" smooth="yes"/>
      <point x="471" y="-10"/>
      <point x="564" y="61"/>
      <point x="564" y="188" type="curve" smooth="yes"/>
      <point x="564" y="281"/>
      <point x="525" y="331"/>
      <point x="450" y="341" type="curve"/>
      <point x="450" y="363" type="line"/>
      <point x="521" y="373"/>
      <point x="558" y="421"/>
      <point x="558" y="509" type="curve" smooth="yes"/>
      <point x="558" y="632"/>
      <point x="467" y="700"/>
      <point x="315" y="700" type="curve" smooth="yes"/>
      <point x="163" y="700"/>
      <point x="72" y="632"/>
      <point x="72" y="509" type="curve" smooth="yes"/>
      <point x="72" y="421"/>
      <point x="109" y="373"/>
      <point x="180" y="363" type="curve"/>
      <point x="180" y="341" type="line"/>
      <point x="105" y="331"/>
      <point x="66" y="281"/>
      <point x="66" y="188" type="curve" smooth="yes"/>
      <point x="66" y="61"/>
      <point x="159" y="-10"/>
    </contour>
    <contour>
      <point x="315" y="46" type="curve" smooth="yes"/>
      <point x="195" y="46"/>
      <point x="131" y="90"/>
      <point x="131" y="177" type="curve" smooth="yes"/>
      <point x="131" y="197" type="line" smooth="yes"/>
      <point x="131" y="284"/>
      <point x="195" y="328"/>
      <point x="315" y="328" type="curve" smooth="yes"/>
      <point x="435" y="328"/>
      <point x="499" y="284"/>
      <point x="499" y="197" type="curve" smooth="yes"/>
      <point x="499" y="177" type="line" smooth="yes"/>
      <point x="499" y="90"/>
      <point x="435" y="46"/>
    </contour>
    <contour>
      <point x="315" y="376" type="curve" smooth="yes"/>
      <point x="199" y="376"/>
      <point x="137" y="419"/>
      <point x="137" y="502" type="curve" smooth="yes"/>
      <point x="137" y="518" type="line" smooth="yes"/>
      <point x="137" y="601"/>
      <point x="199" y="644"/>
      <point x="315" y="644" type="curve" smooth="yes"/>
      <point x="431" y="644"/>
      <point x="492" y="601"/>
      <point x="492" y="518" type="curve" smooth="yes"/>
      <point x="492" y="502" type="line" smooth="yes"/>
      <point x="492" y="419"/>
      <point x="431" y="376"/>
    </contour>
  </outline>
</glyph>
<glyph name="greater" format="1">
  <advance width="474.58621"/>
  <unicode hex="003E"/>
  <outline>
    <contour>
      <point x="44" y="131" type="line"/>
      <point x="439" y="299" type="line"/>
      <point x="439" y="375" type="line"/>
      <point x="44" y="543" type="line"/>
      <point x="44" y="487" type="line"/>
      <point x="383" y="348" type="line"/>
      <point x="383" y="326" type="line"/>
      <point x="44" y="187" type="line"/>
    </contour>
  </outline>
</glyph>
<glyph name="question" format="1">
  <advance width="543.34483"/>
  <unicode hex="003F"/>
  <outline>
    <contour>
      <point x="232" y="256" type="curve" smooth="yes"/>
      <point x="235" y="169" type="line"/>
      <point x="272" y="169" type="line"/>
      <point x="275" y="238" type="line" smooth="yes"/>
      <point x="277" y="278"/>
      <point x="298" y="303"/>
      <point x="345" y="320" type="curve" smooth="yes"/>
      <point x="452" y="355"/>
      <point x="495" y="412"/>
      <point x="495" y="503" type="curve" smooth="yes"/>
      <point x="495" y="513" type="line" smooth="yes"/>
      <point x="495" y="632"/>
      <point x="414" y="700"/>
      <point x="270" y="700" type="curve" smooth="yes"/>
      <point x="130" y="700"/>
      <point x="58" y="633"/>
      <point x="40" y="473" type="curve"/>
      <point x="104" y="473" type="line"/>
      <point x="104" y="481" type="line" smooth="yes"/>
      <point x="104" y="586"/>
      <point x="159" y="644"/>
      <point x="270" y="644" type="curve" smooth="yes"/>
      <point x="371" y="644"/>
      <point x="432" y="599"/>
      <point x="432" y="516" type="curve" smooth="yes"/>
      <point x="432" y="501" type="line" smooth="yes"/>
      <point x="432" y="441"/>
      <point x="401" y="402"/>
      <point x="318" y="373" type="curve" smooth="yes"/>
      <point x="256" y="348"/>
      <point x="230" y="314"/>
    </contour>
    <contour>
      <point x="212" y="0" type="line"/>
      <point x="295" y="0" type="line"/>
      <point x="295" y="80" type="line"/>
      <point x="212" y="80" type="line"/>
    </contour>
  </outline>
</glyph>
<glyph name="A" format="1">
  <advance width="631.41379"/>
  <unicode hex="0041"/>
  <outline>
    <contour>
      <point x="38" y="0" type="line"/>
      <point x="104" y="0" type="line"/>
      <point x="306" y="633" type="line"/>
      <point x="328" y="633" type="line"/>
      <point x="530" y="0" type="line"/>
      <point x="599" y="0" type="line"/>
      <point x="376" y="690" type="line"/>
      <point x="261" y="690" type="line"/>
    </contour>
    <contour>
      <point x="136" y="188" type="line"/>
      <point x="500" y="188" type="line"/>
      <point x="487" y="238" type="line"/>
      <point x="150" y="238" type="line"/>
    </contour>
    <contour>
      <point x="152" y="637" type="line"/>
      <point x="287" y="637" type="line"/>
      <point x="287" y="690" type="line"/>
      <point x="152" y="690" type="line"/>
    </contour>
    <contour>
      <point x="599" y="0" type="move" name="ogonek"/>
    </contour>
    <contour>
      <point x="315" y="690" type="move" name="top"/>
    </contour>
  </outline>
</glyph>
<glyph name="B" format="1">
  <advance width="634.72414"/>
  <unicode hex="0042"/>
  <outline>
    <contour>
      <point x="110" y="0" type="line"/>
      <point x="391" y="0" type="line" smooth="yes"/>
      <point x="504" y="0"/>
      <point x="571" y="69"/>
      <point x="571" y="190" type="curve" smooth="yes"/>
      <point x="571" y="282"/>
      <point x="532" y="331"/>
      <point x="457" y="341" type="curve"/>
      <point x="457" y="363" type="line"/>
      <point x="528" y="373"/>
      <point x="564" y="419"/>
      <point x="564" y="507" type="curve" smooth="yes"/>
      <point x="564" y="624"/>
      <point x="500" y="690"/>
      <point x="388" y="690" type="curve" smooth="yes"/>
      <point x="18" y="690" type="line"/>
      <point x="18" y="637" type="line"/>
      <point x="110" y="637" type="line"/>
    </contour>
    <contour>
      <point x="385" y="53" type="curve" smooth="yes"/>
      <point x="174" y="53" type="line"/>
      <point x="174" y="327" type="line"/>
      <point x="385" y="327" type="line" smooth="yes"/>
      <point x="464" y="327"/>
      <point x="505" y="285"/>
      <point x="505" y="203" type="curve" smooth="yes"/>
      <point x="505" y="176" type="line" smooth="yes"/>
      <point x="505" y="95"/>
      <point x="464" y="53"/>
    </contour>
    <contour>
      <point x="383" y="377" type="curve" smooth="yes"/>
      <point x="174" y="377" type="line"/>
      <point x="174" y="637" type="line"/>
      <point x="383" y="637" type="line" smooth="yes"/>
      <point x="459" y="637"/>
      <point x="498" y="597"/>
      <point x="498" y="519" type="curve" smooth="yes"/>
      <point x="498" y="496" type="line" smooth="yes"/>
      <point x="498" y="418"/>
      <point x="459" y="377"/>
    </contour>
  </outline>
</glyph>
<glyph name="F" format="1">
  <advance width="586.21552"/>
  <unicode hex="0046"/>
  <outline>
    <contour>
      <point x="108" y="0" type="line"/>
      <point x="172" y="0" type="line"/>
      <point x="172" y="327" type="line"/>
      <point x="441" y="327" type="line"/>
      <point x="441" y="377" type="line"/>
      <point x="172" y="377" type="line"/>
      <point x="172" y="637" type="line"/>
      <point x="483" y="637" type="line"/>
      <point x="483" y="494" type="line"/>
      <point x="539" y="494" type="line"/>
      <point x="539" y="690" type="line"/>
      <point x="17" y="690" type="line"/>
      <point x="17" y="637" type="line"/>
      <point x="108" y="637" type="line"/>
    </contour>
  </outline>
</glyph>
<glyph name="H" format="1">
  <advance width="678.75862"/>
  <unicode hex="0048"/>
  <outline>
    <contour>
      <point x="514" y="0" type="line"/>
      <point x="578" y="0" type="line"/>
      <point x="578" y="690" type="line"/>
      <point x="514" y="690" type="line"/>
    </contour>
    <contour>
      <point x="109" y="0" type="line"/>
      <point x="173" y="0" type="line"/>
      <point x="173" y="690" type="line"/>
      <point x="18" y="690" type="line"/>
      <point x="18" y="637" type="line"/>
      <point x="109" y="637" type="line"/>
    </contour>
    <contour>
      <point x="140" y="327" type="line"/>
      <point x="545" y="327" type="line"/>
      <point x="545" y="377" type="line"/>
      <point x="140" y="377" type="line"/>
    </contour>
  </outline>
</glyph>
<glyph name="I" format="1">
  <advance width="358.42241"/>
  <unicode hex="0049"/>
  <outline>
    <contour>
      <point x="45" y="0" type="line"/>
      <point x="313" y="0" type="line"/>
      <point x="313" y="53" type="line"/>
      <point x="211" y="53" type="line"/>
      <point x="211" y="637" type="line"/>
      <point x="313" y="637" type="line"/>
      <point x="313" y="690" type="line"/>
      <point x="45" y="690" type="line"/>
      <point x="45" y="637" type="line"/>
      <point x="147" y="637" type="line"/>
      <point x="147" y="53" type="line"/>
      <point x="45" y="53" type="line"/>
    </contour>
    <contour>
      <point x="179" y="690" type="move" name="top"/>
    </contour>
  </outline>
</glyph>
<glyph name="K" format="1">
  <advance width="640.27586"/>
  <unicode hex="004B"/>
  <outline>
    <contour>
      <point x="111" y="0" type="line"/>
      <point x="175" y="0" type="line"/>
      <point x="175" y="329" type="line"/>
      <point x="267" y="329" type="line"/>
      <point x="497" y="0" type="line"/>
      <point x="630" y="0" type="line"/>
      <point x="630" y="53" type="line"/>
      <point x="538" y="53" type="line"/>
      <point x="305" y="384" type="line"/>
      <point x="310" y="336" type="line"/>
      <point x="603" y="690" type="line"/>
      <point x="521" y="690" type="line"/>
      <point x="267" y="379" type="line"/>
      <point x="175" y="379" type="line"/>
      <point x="175" y="690" type="line"/>
      <point x="20" y="690" type="line"/>
      <point x="20" y="637" type="line"/>
      <point x="111" y="637" type="line"/>
    </contour>
  </outline>
</glyph>
<glyph name="L" format="1">
  <advance width="576.5431"/>
  <unicode hex="004C"/>
  <outline>
    <contour>
      <point x="108" y="0" type="line"/>
      <point x="529" y="0" type="line"/>
      <point x="529" y="200" type="line"/>
      <point x="473" y="200" type="line"/>
      <point x="473" y="53" type="line"/>
      <point x="172" y="53" type="line"/>
      <point x="172" y="637" type="line"/>
      <point x="263" y="637" type="line"/>
      <point x="263" y="690" type="line"/>
      <point x="17" y="690" type="line"/>
      <point x="17" y="637" type="line"/>
      <point x="108" y="637" type="line"/>
    </contour>
  </outline>
</glyph>
<glyph name="P" format="1">
  <advance width="613.37931"/>
  <unicode hex="0050"/>
  <outline>
    <contour>
      <point x="110" y="0" type="line"/>
      <point x="174" y="0" type="line"/>
      <point x="174" y="299" type="line"/>
      <point x="383" y="299" type="line" smooth="yes"/>
      <point x="500" y="299"/>
      <point x="568" y="369"/>
      <point x="568" y="494" type="curve" smooth="yes"/>
      <point x="568" y="620"/>
      <point x="500" y="690"/>
      <point x="383" y="690" type="curve" smooth="yes"/>
      <point x="19" y="690" type="line"/>
      <point x="19" y="637" type="line"/>
      <point x="110" y="637" type="line"/>
    </contour>
    <contour>
      <point x="377" y="350" type="curve" smooth="yes"/>
      <point x="174" y="350" type="line"/>
      <point x="174" y="637" type="line"/>
      <point x="377" y="637" type="line" smooth="yes"/>
      <point x="459" y="637"/>
      <point x="502" y="593"/>
      <point x="502" y="509" type="curve" smooth="yes"/>
      <point x="502" y="479" type="line" smooth="yes"/>
      <point x="502" y="395"/>
      <point x="459" y="350"/>
    </contour>
  </outline>
</glyph>
<glyph name="R" format="1">
  <advance width="654.51724"/>
  <unicode hex="0052"/>
  <outline>
    <contour>
      <point x="109" y="0" type="line"/>
      <point x="173" y="0" type="line"/>
      <point x="173" y="319" type="line"/>
      <point x="363" y="319" type="line" smooth="yes"/>
      <point x="441" y="319"/>
      <point x="481" y="279"/>
      <point x="481" y="198" type="curve" smooth="yes"/>
      <point x="481" y="0" type="line"/>
      <point x="633" y="0" type="line"/>
      <point x="633" y="53" type="line"/>
      <point x="545" y="53" type="line"/>
      <point x="545" y="194" type="line" smooth="yes"/>
      <point x="545" y="277"/>
      <point x="512" y="324"/>
      <point x="449" y="333" type="curve"/>
      <point x="449" y="354" type="line"/>
      <point x="528" y="365"/>
      <point x="567" y="413"/>
      <point x="567" y="504" type="curve" smooth="yes"/>
      <point x="567" y="623"/>
      <point x="502" y="690"/>
      <point x="389" y="690" type="curve" smooth="yes"/>
      <point x="18" y="690" type="line"/>
      <point x="18" y="637" type="line"/>
      <point x="109" y="637" type="line"/>
    </contour>
    <contour>
      <point x="384" y="370" type="curve" smooth="yes"/>
      <point x="173" y="370" type="line"/>
      <point x="173" y="637" type="line"/>
      <point x="384" y="637" type="line" smooth="yes"/>
      <point x="461" y="637"/>
      <point x="501" y="596"/>
      <point x="501" y="515" type="curve" smooth="yes"/>
      <point x="501" y="492" type="line" smooth="yes"/>
      <point x="501" y="412"/>
      <point x="461" y="370"/>
    </contour>
  </outline>
</glyph>
<glyph name="S" format="1">
  <advance width="620.84483"/>
  <unicode hex="0053"/>
  <outline>
    <contour>
      <point x="313" y="-10" type="curve" smooth="yes"/>
      <point x="471" y="-10"/>
      <point x="561" y="62"/>
      <point x="561" y="186" type="curve" smooth="yes"/>
      <point x="561" y="282"/>
      <point x="509" y="333"/>
      <point x="393" y="360" type="curve" smooth="yes"/>
      <point x="255" y="389" type="line" smooth="yes"/>
      <point x="163" y="409"/>
      <point x="127" y="443"/>
      <point x="127" y="504" type="curve" smooth="yes"/>
      <point x="127" y="512" type="line" smooth="yes"/>
      <point x="127" y="596"/>
      <point x="194" y="643"/>
      <point x="308" y="643" type="curve" smooth="yes"/>
      <point x="437" y="643"/>
      <point x="496" y="578"/>
      <point x="496" y="467" type="curve" smooth="yes"/>
      <point x="496" y="459" type="line"/>
      <point x="561" y="459" type="line"/>
      <point x="542" y="629"/>
      <point x="463" y="700"/>
      <point x="308" y="700" type="curve" smooth="yes"/>
      <point x="152" y="700"/>
      <point x="63" y="628"/>
      <point x="63" y="503" type="curve" smooth="yes"/>
      <point x="63" y="408"/>
      <point x="115" y="357"/>
      <point x="229" y="330" type="curve" smooth="yes"/>
      <point x="367" y="301" type="line" smooth="yes"/>
      <point x="460" y="280"/>
      <point x="497" y="248"/>
      <point x="497" y="186" type="curve" smooth="yes"/>
      <point x="497" y="178" type="line" smooth="yes"/>
      <point x="497" y="94"/>
      <point x="429" y="47"/>
      <point x="313" y="47" type="curve" smooth="yes"/>
      <point x="185" y="47"/>
      <point x="123" y="110"/>
      <point x="123" y="222" type="curve" smooth="yes"/>
      <point x="123" y="231" type="line"/>
      <point x="58" y="231" type="line"/>
      <point x="77" y="61"/>
      <point x="156" y="-10"/>
    </contour>
    <contour>
      <point x="304" y="690" type="move" name="top"/>
    </contour>
  </outline>
</glyph>
<glyph name="T" format="1">
  <advance width="598.03448"/>
  <unicode hex="0054"/>
  <outline>
    <contour>
      <point x="267" y="0" type="line"/>
      <point x="331" y="0" type="line"/>
      <point x="331" y="637" type="line"/>
      <point x="498" y="637" type="line"/>
      <point x="498" y="494" type="line"/>
      <point x="554" y="494" type="line"/>
      <point x="554" y="690" type="line"/>
      <point x="45" y="690" type="line"/>
      <point x="45" y="494" type="line"/>
      <point x="100" y="494" type="line"/>
      <point x="100" y="637" type="line"/>
      <point x="267" y="637" type="line"/>
    </contour>
  </outline>
</glyph>
<glyph name="U" format="1">
  <advance width="692.10345"/>
  <unicode hex="0055"/>
  <outline>
    <contour>
      <point x="316" y="-10" type="curve" smooth="yes"/>
      <point x="412" y="-10"/>
      <point x="472" y="23"/>
      <point x="509" y="94" type="curve"/>
      <point x="530" y="94" type="line"/>
      <point x="530" y="47" type="line" smooth="yes"/>
      <point x="530" y="16"/>
      <point x="547" y="0"/>
      <point x="577" y="0" type="curve" smooth="yes"/>
      <point x="673" y="0" type="line"/>
      <point x="673" y="53" type="line"/>
      <point x="582" y="53" type="line"/>
      <point x="582" y="690" type="line"/>
      <point x="518" y="690" type="line"/>
      <point x="518" y="245" type="line" smooth="yes"/>
      <point x="518" y="107"/>
      <point x="464" y="47"/>
      <point x="342" y="47" type="curve" smooth="yes"/>
      <point x="221" y="47"/>
      <point x="166" y="107"/>
      <point x="166" y="245" type="curve" smooth="yes"/>
      <point x="166" y="690" type="line"/>
      <point x="11" y="690" type="line"/>
      <point x="11" y="637" type="line"/>
      <point x="102" y="637" type="line"/>
      <point x="102" y="229" type="line" smooth="yes"/>
      <point x="102" y="72"/>
      <point x="176" y="-10"/>
    </contour>
    <contour>
      <point x="342" y="690" type="move" name="top"/>
    </contour>
  </outline>
</glyph>
<glyph name="W" format="1">
  <advance width="950.61207"/>
  <unicode hex="0057"/>
  <outline>
    <contour>
      <point x="214" y="0" type="line"/>
      <point x="324" y="0" type="line"/>
      <point x="464" y="541" type="line"/>
      <point x="486" y="541" type="line"/>
      <point x="626" y="0" type="line"/>
      <point x="736" y="0" type="line"/>
      <point x="916" y="690" type="line"/>
      <point x="851" y="690" type="line"/>
      <point x="690" y="57" type="line"/>
      <point x="669" y="57" type="line"/>
      <point x="506" y="690" type="line"/>
      <point x="446" y="690" type="line"/>
      <point x="283" y="57" type="line"/>
      <point x="262" y="57" type="line"/>
      <point x="101" y="690" type="line"/>
      <point x="34" y="690" type="line"/>
    </contour>
  </outline>
</glyph>
<glyph name="Y" format="1">
  <advance width="614.25"/>
  <unicode hex="0059"/>
  <outline>
    <contour>
      <point x="173" y="0" type="line"/>
      <point x="441" y="0" type="line"/>
      <point x="441" y="53" type="line"/>
      <point x="339" y="53" type="line"/>
      <point x="339" y="290" type="line"/>
      <point x="590" y="690" type="line"/>
      <point x="521" y="690" type="line"/>
      <point x="319" y="369" type="line"/>
      <point x="297" y="369" type="line"/>
      <point x="96" y="690" type="line"/>
      <point x="25" y="690" type="line"/>
      <point x="275" y="290" type="line"/>
      <point x="275" y="53" type="line"/>
      <point x="173" y="53" type="line"/>
    </contour>
    <contour>
      <point x="308" y="690" type="move" name="top"/>
    </contour>
  </outline>
</glyph>
<glyph name="bracketleft" format="1">
  <advance width="329.91379"/>
  <unicode hex="005B"/>
  <outline>
    <contour>
      <point x="97" y="-92" type="line"/>
      <point x="293" y="-92" type="line"/>
      <point x="293" y="-41" type="line"/>
      <point x="157" y="-41" type="line"/>
      <point x="157" y="731" type="line"/>
      <point x="293" y="731" type="line"/>
      <point x="293" y="782" type="line"/>
      <point x="97" y="782" type="line"/>
    </contour>
  </outline>
</glyph>
<glyph name="b" format="1">
  <advance width="596.03448"/>
  <unicode hex="0062"/>
  <outline>
    <contour>
      <point x="326" y="-10" type="curve" smooth="yes"/>
      <point x="462" y="-10"/>
      <point x="541" y="88"/>
      <point x="541" y="267" type="curve" smooth="yes"/>
      <point x="541" y="446"/>
      <point x="462" y="544"/>
      <point x="326" y="544" type="curve" smooth="yes"/>
      <point x="249" y="544"/>
      <point x="198" y="513"/>
      <point x="162" y="445" type="curve"/>
      <point x="141" y="445" type="line"/>
      <point x="148" y="508"/>
      <point x="151" y="540"/>
      <point x="151" y="571" type="curve" smooth="yes"/>
      <point x="151" y="690" type="line"/>
      <point x="10" y="690" type="line"/>
      <point x="10" y="639" type="line"/>
      <point x="89" y="639" type="line"/>
      <point x="89" y="0" type="line"/>
      <point x="139" y="0" type="line"/>
      <point x="139" y="93" type="line"/>
      <point x="160" y="93" type="line"/>
      <point x="197" y="23"/>
      <point x="249" y="-10"/>
    </contour>
    <contour>
      <point x="313" y="45" type="curve" smooth="yes"/>
      <point x="201" y="45"/>
      <point x="151" y="107"/>
      <point x="151" y="245" type="curve" smooth="yes"/>
      <point x="151" y="289" type="line" smooth="yes"/>
      <point x="151" y="427"/>
      <point x="201" y="489"/>
      <point x="313" y="489" type="curve" smooth="yes"/>
      <point x="424" y="489"/>
      <point x="475" y="427"/>
      <point x="475" y="289" type="curve" smooth="yes"/>
      <point x="475" y="245" type="line" smooth="yes"/>
      <point x="475" y="107"/>
      <point x="424" y="45"/>
    </contour>
  </outline>
</glyph>
<glyph name="c" format="1">
  <advance width="562.24138"/>
  <unicode hex="0063"/>
  <outline>
    <contour>
      <point x="286" y="-10" type="curve" smooth="yes"/>
      <point x="409" y="-10"/>
      <point x="487" y="57"/>
      <point x="506" y="183" type="curve"/>
      <point x="443" y="183" type="line"/>
      <point x="443" y="183" type="line"/>
      <point x="443" y="116"/>
      <point x="398" y="45"/>
      <point x="286" y="45" type="curve" smooth="yes"/>
      <point x="176" y="45"/>
      <point x="122" y="107"/>
      <point x="122" y="245" type="curve" smooth="yes"/>
      <point x="122" y="289" type="line" smooth="yes"/>
      <point x="122" y="427"/>
      <point x="176" y="489"/>
      <point x="286" y="489" type="curve" smooth="yes"/>
      <point x="398" y="489"/>
      <point x="443" y="418"/>
      <point x="443" y="359" type="curve" smooth="yes"/>
      <point x="443" y="359" type="line"/>
      <point x="505" y="359" type="line"/>
      <point x="484" y="480"/>
      <point x="406" y="544"/>
      <point x="286" y="544" type="curve" smooth="yes"/>
      <point x="141" y="544"/>
      <point x="56" y="448"/>
      <point x="56" y="267" type="curve" smooth="yes"/>
      <point x="56" y="86"/>
      <point x="141" y="-10"/>
    </contour>
    <contour>
      <point x="286" y="0" type="move" name="bottom"/>
    </contour>
    <contour>
      <point x="286" y="534" type="move" name="top"/>
    </contour>
  </outline>
</glyph>
<glyph name="g" format="1">
  <advance width="546.55172"/>
  <unicode hex="0067"/>
  <outline>
    <contour>
      <point x="59" y="-132" type="line"/>
      <point x="371" y="-132" type="line" smooth="yes"/>
      <point x="458" y="-132"/>
      <point x="504" y="-94"/>
      <point x="504" y="-22" type="curve" smooth="yes"/>
      <point x="504" y="47"/>
      <point x="460" y="85"/>
      <point x="379" y="85" type="curve" smooth="yes"/>
      <point x="185" y="85" type="line" smooth="yes"/>
      <point x="138" y="85"/>
      <point x="120" y="97"/>
      <point x="120" y="128" type="curve" smooth="yes"/>
      <point x="120" y="159"/>
      <point x="138" y="171"/>
      <point x="185" y="171" type="curve" smooth="yes"/>
      <point x="265" y="171" type="line" smooth="yes"/>
      <point x="395" y="171"/>
      <point x="473" y="237"/>
      <point x="473" y="355" type="curve" smooth="yes"/>
      <point x="473" y="476"/>
      <point x="395" y="544"/>
      <point x="265" y="544" type="curve" smooth="yes"/>
      <point x="134" y="544"/>
      <point x="56" y="476"/>
      <point x="56" y="355" type="curve" smooth="yes"/>
      <point x="56" y="283"/>
      <point x="82" y="230"/>
      <point x="136" y="201" type="curve"/>
      <point x="136" y="182" type="line"/>
      <point x="87" y="175"/>
      <point x="60" y="149"/>
      <point x="60" y="108" type="curve" smooth="yes"/>
      <point x="60" y="57"/>
      <point x="98" y="30"/>
      <point x="168" y="30" type="curve" smooth="yes"/>
      <point x="364" y="30" type="line" smooth="yes"/>
      <point x="420" y="30"/>
      <point x="440" y="15"/>
      <point x="440" y="-26" type="curve" smooth="yes"/>
      <point x="440" y="-66"/>
      <point x="420" y="-81"/>
      <point x="364" y="-81" type="curve" smooth="yes"/>
      <point x="59" y="-81" type="line"/>
    </contour>
    <contour>
      <point x="265" y="222" type="curve" smooth="yes"/>
      <point x="169" y="222"/>
      <point x="120" y="263"/>
      <point x="120" y="352" type="curve" smooth="yes"/>
      <point x="120" y="360" type="line" smooth="yes"/>
      <point x="120" y="449"/>
      <point x="169" y="490"/>
      <point x="265" y="490" type="curve" smooth="yes"/>
      <point x="361" y="490"/>
      <point x="409" y="449"/>
      <point x="409" y="360" type="curve" smooth="yes"/>
      <point x="409" y="352" type="line" smooth="yes"/>
      <point x="409" y="263"/>
      <point x="361" y="222"/>
    </contour>
    <contour>
      <point x="360" y="510" type="curve"/>
      <point x="377" y="492" type="line"/>
      <point x="377" y="521"/>
      <point x="388" y="534"/>
      <point x="412" y="534" type="curve" smooth="yes"/>
      <point x="504" y="534" type="line"/>
      <point x="504" y="585" type="line"/>
      <point x="435" y="585" type="line" smooth="yes"/>
      <point x="384" y="585"/>
      <point x="360" y="561"/>
    </contour>
  </outline>
</glyph>
<glyph name="h" format="1">
  <advance width="589.24138"/>
  <unicode hex="0068"/>
  <outline>
    <contour>
      <point x="88" y="0" type="line"/>
      <point x="150" y="0" type="line"/>
      <point x="150" y="327" type="line" smooth="yes"/>
      <point x="150" y="440"/>
      <point x="193" y="489"/>
      <point x="290" y="489" type="curve" smooth="yes"/>
      <point x="387" y="489"/>
      <point x="430" y="440"/>
      <point x="430" y="327" type="curve" smooth="yes"/>
      <point x="430" y="0" type="line"/>
      <point x="571" y="0" type="line"/>
      <point x="571" y="51" type="line"/>
      <point x="491" y="51" type="line"/>
      <point x="491" y="341" type="line" smooth="yes"/>
      <point x="491" y="475"/>
      <point x="432" y="544"/>
      <point x="316" y="544" type="curve" smooth="yes"/>
      <point x="240" y="544"/>
      <point x="191" y="515"/>
      <point x="162" y="457" type="curve"/>
      <point x="140" y="457" type="line"/>
      <point x="147" y="520"/>
      <point x="150" y="552"/>
      <point x="150" y="583" type="curve" smooth="yes"/>
      <point x="150" y="690" type="line"/>
      <point x="9" y="690" type="line"/>
      <point x="9" y="639" type="line"/>
      <point x="88" y="639" type="line"/>
    </contour>
  </outline>
</glyph>
<glyph name="k" format="1">
  <advance width="572.12069"/>
  <unicode hex="006B"/>
  <outline>
    <contour>
      <point x="90" y="0" type="line"/>
      <point x="151" y="0" type="line"/>
      <point x="151" y="252" type="line"/>
      <point x="237" y="252" type="line"/>
      <point x="437" y="0" type="line"/>
      <point x="555" y="0" type="line"/>
      <point x="555" y="51" type="line"/>
      <point x="476" y="51" type="line"/>
      <point x="272" y="307" type="line"/>
      <point x="278" y="257" type="line"/>
      <point x="535" y="534" type="line"/>
      <point x="451" y="534" type="line"/>
      <point x="237" y="300" type="line"/>
      <point x="151" y="300" type="line"/>
      <point x="151" y="690" type="line"/>
      <point x="10" y="690" type="line"/>
      <point x="10" y="639" type="line"/>
      <point x="90" y="639" type="line"/>
    </contour>
  </outline>
</glyph>
<glyph name="l" format="1">
  <advance width="266.81897"/>
  <unicode hex="006C"/>
  <outline>
    <contour>
      <point x="103" y="0" type="line"/>
      <point x="165" y="0" type="line"/>
      <point x="165" y="690" type="line"/>
      <point x="9" y="690" type="line"/>
      <point x="9" y="639" type="line"/>
      <point x="103" y="639" type="line"/>
    </contour>
  </outline>
</glyph>
<glyph name="o" format="1">
  <advance width="583.13793"/>
  <unicode hex="006F"/>
  <outline>
    <contour>
      <point x="292" y="-10" type="curve" smooth="yes"/>
      <point x="441" y="-10"/>
      <point x="528" y="88"/>
      <point x="528" y="267" type="curve" smooth="yes"/>
      <point x="528" y="446"/>
      <point x="441" y="544"/>
      <point x="292" y="544" type="curve" smooth="yes"/>
      <point x="143" y="544"/>
      <point x="55" y="446"/>
      <point x="55" y="267" type="curve" smooth="yes"/>
      <point x="55" y="88"/>
      <point x="143" y="-10"/>
    </contour>
    <contour>
      <point x="292" y="45" type="curve" smooth="yes"/>
      <point x="175" y="45"/>
      <point x="121" y="108"/>
      <point x="121" y="247" type="curve" smooth="yes"/>
      <point x="121" y="287" type="line" smooth="yes"/>
      <point x="121" y="426"/>
      <point x="175" y="489"/>
      <point x="292" y="489" type="curve" smooth="yes"/>
      <point x="408" y="489"/>
      <point x="462" y="426"/>
      <point x="462" y="287" type="curve" smooth="yes"/>
      <point x="462" y="247" type="line" smooth="yes"/>
      <point x="462" y="108"/>
      <point x="408" y="45"/>
    </contour>
    <contour>
      <point x="292" y="534" type="move" name="top"/>
    </contour>
  </outline>
</glyph>
<glyph name="r" format="1">
  <advance width="446.02586"/>
  <unicode hex="0072"/>
  <outline>
    <contour>
      <point x="101" y="0" type="line"/>
      <point x="162" y="0" type="line"/>
      <point x="162" y="321" type="line" smooth="yes"/>
      <point x="162" y="434"/>
      <point x="205" y="483"/>
      <point x="303" y="483" type="curve" smooth="yes"/>
      <point x="413" y="483" type="line"/>
      <point x="413" y="538" type="line"/>
      <point x="324" y="538" type="line" smooth="yes"/>
      <point x="249" y="538"/>
      <point x="204" y="509"/>
      <point x="172" y="446" type="curve"/>
      <point x="150" y="446" type="line"/>
      <point x="150" y="534" type="line"/>
      <point x="22" y="534" type="line"/>
      <point x="22" y="483" type="line"/>
      <point x="101" y="483" type="line"/>
    </contour>
  </outline>
</glyph>
<glyph name="s" format="1">
  <advance width="531.61207"/>
  <unicode hex="0073"/>
  <outline>
    <contour>
      <point x="267" y="-10" type="curve" smooth="yes"/>
      <point x="401" y="-10"/>
      <point x="478" y="48"/>
      <point x="478" y="147" type="curve" smooth="yes"/>
      <point x="478" y="221"/>
      <point x="434" y="260"/>
      <point x="334" y="283" type="curve" smooth="yes"/>
      <point x="224" y="308" type="line" smooth="yes"/>
      <point x="147" y="325"/>
      <point x="118" y="347"/>
      <point x="118" y="393" type="curve" smooth="yes"/>
      <point x="118" y="455"/>
      <point x="173" y="490"/>
      <point x="264" y="490" type="curve" smooth="yes"/>
      <point x="382" y="490"/>
      <point x="415" y="429"/>
      <point x="415" y="373" type="curve" smooth="yes"/>
      <point x="415" y="373" type="line"/>
      <point x="478" y="373" type="line"/>
      <point x="458" y="492"/>
      <point x="390" y="544"/>
      <point x="264" y="544" type="curve" smooth="yes"/>
      <point x="133" y="544"/>
      <point x="57" y="486"/>
      <point x="57" y="388" type="curve" smooth="yes"/>
      <point x="57" y="314"/>
      <point x="100" y="274"/>
      <point x="199" y="251" type="curve" smooth="yes"/>
      <point x="309" y="226" type="line" smooth="yes"/>
      <point x="388" y="208"/>
      <point x="416" y="187"/>
      <point x="416" y="141" type="curve" smooth="yes"/>
      <point x="416" y="79"/>
      <point x="360" y="44"/>
      <point x="267" y="44" type="curve" smooth="yes"/>
      <point x="148" y="44"/>
      <point x="116" y="105"/>
      <point x="116" y="161" type="curve" smooth="yes"/>
      <point x="116" y="161" type="line"/>
      <point x="52" y="161" type="line"/>
      <point x="72" y="42"/>
      <point x="139" y="-10"/>
    </contour>
    <contour>
      <point x="260" y="534" type="move" name="top"/>
    </contour>
  </outline>
</glyph>
<glyph name="w" format="1">
  <advance width="863.36207"/>
  <unicode hex="0077"/>
  <outline>
    <contour>
      <point x="194" y="0" type="line"/>
      <point x="300" y="0" type="line"/>
      <point x="421" y="389" type="line"/>
      <point x="442" y="389" type="line"/>
      <point x="562" y="0" type="line"/>
      <point x="669" y="0" type="line"/>
      <point x="829" y="534" type="line"/>
      <point x="767" y="534" type="line"/>
      <point x="626" y="55" type="line"/>
      <point x="604" y="55" type="line"/>
      <point x="461" y="534" type="line"/>
      <point x="404" y="534" type="line"/>
      <point x="261" y="55" type="line"/>
      <point x="239" y="55" type="line"/>
      <point x="98" y="534" type="line"/>
      <point x="34" y="534" type="line"/>
    </contour>
  </outline>
</glyph>
<glyph name="x" format="1">
  <advance width="582.19828"/>
  <unicode hex="0078"/>
  <outline>
    <contour>
      <point x="32" y="0" type="line"/>
      <point x="153" y="0" type="line"/>
      <point x="279" y="249" type="line"/>
      <point x="301" y="249" type="line"/>
      <point x="427" y="0" type="line"/>
      <point x="550" y="0" type="line"/>
      <point x="550" y="51" type="line"/>
      <point x="470" y="51" type="line"/>
      <point x="344" y="298" type="line"/>
      <point x="345" y="261" type="line"/>
      <point x="464" y="483" type="line"/>
      <point x="543" y="483" type="line"/>
      <point x="543" y="534" type="line"/>
      <point x="422" y="534" type="line"/>
      <point x="303" y="303" type="line"/>
      <point x="281" y="303" type="line"/>
      <point x="161" y="534" type="line"/>
      <point x="39" y="534" type="line"/>
      <point x="39" y="483" type="line"/>
      <point x="118" y="483" type="line"/>
      <point x="237" y="261" type="line"/>
      <point x="238" y="298" type="line"/>
      <point x="111" y="51" type="line"/>
      <point x="32" y="51" type="line"/>
    </contour>
  </outline>
</glyph>
<glyph name="braceright" format="1">
  <advance width="360.31897"/>
  <unicode hex="007D"/>
  <outline>
    <contour>
      <point x="187" y="782" type="curve" smooth="yes"/>
      <point x="37" y="782" type="line"/>
      <point x="37" y="731" type="line"/>
      <point x="169" y="731" type="line" smooth="yes"/>
      <point x="183" y="731"/>
      <point x="191" y="724"/>
      <point x="191" y="708" type="curve" smooth="yes"/>
      <point x="191" y="672"/>
      <point x="147" y="475"/>
      <point x="147" y="414" type="curve" smooth="yes"/>
      <point x="147" y="377"/>
      <point x="162" y="357"/>
      <point x="193" y="353" type="curve"/>
      <point x="193" y="337" type="line"/>
      <point x="162" y="333"/>
      <point x="147" y="313"/>
      <point x="147" y="276" type="curve" smooth="yes"/>
      <point x="147" y="215"/>
      <point x="191" y="18"/>
      <point x="191" y="-18" type="curve" smooth="yes"/>
      <point x="191" y="-34"/>
      <point x="183" y="-41"/>
      <point x="169" y="-41" type="curve" smooth="yes"/>
      <point x="37" y="-41" type="line"/>
      <point x="37" y="-92" type="line"/>
      <point x="187" y="-92" type="line" smooth="yes"/>
      <point x="230" y="-92"/>
      <point x="251" y="-71"/>
      <point x="251" y="-28" type="curve" smooth="yes"/>
      <point x="251" y="33"/>
      <point x="205" y="222"/>
      <point x="205" y="278" type="curve" smooth="yes"/>
      <point x="205" y="307"/>
      <point x="216" y="320"/>
      <point x="239" y="320" type="curve" smooth="yes"/>
      <point x="332" y="320" type="line"/>
      <point x="332" y="370" type="line"/>
      <point x="239" y="370" type="line" smooth="yes"/>
      <point x="216" y="370"/>
      <point x="205" y="383"/>
      <point x="205" y="412" type="curve" smooth="yes"/>
      <point x="205" y="468"/>
      <point x="251" y="657"/>
      <point x="251" y="718" type="curve" smooth="yes"/>
      <point x="251" y="761"/>
      <point x="230" y="782"/>
    </contour>
  </outline>
</glyph>
<glyph name="cent" format="1">
  <advance width="576.46552"/>
  <unicode hex="00A2"/>
  <outline>
    <contour>
      <point x="292" y="-5" type="curve" smooth="yes"/>
      <point x="414" y="-5"/>
      <point x="493" y="59"/>
      <point x="512" y="183" type="curve"/>
      <point x="449" y="183" type="line"/>
      <point x="449" y="183" type="line"/>
      <point x="449" y="117"/>
      <point x="404" y="49"/>
      <point x="292" y="49" type="curve" smooth="yes"/>
      <point x="183" y="49"/>
      <point x="129" y="108"/>
      <point x="129" y="245" type="curve" smooth="yes"/>
      <point x="129" y="289" type="line" smooth="yes"/>
      <point x="129" y="426"/>
      <point x="183" y="485"/>
      <point x="292" y="485" type="curve" smooth="yes"/>
      <point x="404" y="485"/>
      <point x="449" y="417"/>
      <point x="449" y="359" type="curve" smooth="yes"/>
      <point x="449" y="359" type="line"/>
      <point x="511" y="359" type="line"/>
      <point x="490" y="478"/>
      <point x="412" y="539"/>
      <point x="292" y="539" type="curve" smooth="yes"/>
      <point x="148" y="539"/>
      <point x="63" y="447"/>
      <point x="63" y="267" type="curve" smooth="yes"/>
      <point x="63" y="87"/>
      <point x="148" y="-5"/>
    </contour>
    <contour>
      <point x="265" y="-92" type="line"/>
      <point x="320" y="-92" type="line"/>
      <point x="320" y="24" type="line"/>
      <point x="265" y="24" type="line"/>
    </contour>
    <contour>
      <point x="265" y="510" type="line"/>
      <point x="320" y="510" type="line"/>
      <point x="320" y="626" type="line"/>
      <point x="265" y="626" type="line"/>
    </contour>
  </outline>
</glyph>
<glyph name="sterling" format="1">
  <advance width="609.27586"/>
  <unicode hex="00A3"/>
  <outline>
    <contour>
      <point x="72" y="54" type="curve"/>
      <point x="72" y="0" type="line"/>
      <point x="552" y="0" type="line"/>
      <point x="552" y="57" type="line"/>
      <point x="143" y="57" type="line"/>
      <point x="192" y="89"/>
      <point x="228" y="147"/>
      <point x="228" y="219" type="curve" smooth="yes"/>
      <point x="228" y="314"/>
      <point x="163" y="400"/>
      <point x="163" y="495" type="curve" smooth="yes"/>
      <point x="163" y="510" type="line" smooth="yes"/>
      <point x="163" y="595"/>
      <point x="224" y="643"/>
      <point x="319" y="643" type="curve" smooth="yes"/>
      <point x="413" y="643"/>
      <point x="487" y="604"/>
      <point x="487" y="473" type="curve" smooth="yes"/>
      <point x="487" y="459" type="line"/>
      <point x="549" y="459" type="line"/>
      <point x="537" y="636"/>
      <point x="452" y="700"/>
      <point x="319" y="700" type="curve" smooth="yes"/>
      <point x="178" y="700"/>
      <point x="101" y="615"/>
      <point x="101" y="502" type="curve" smooth="yes"/>
      <point x="101" y="398"/>
      <point x="172" y="320"/>
      <point x="172" y="217" type="curve" smooth="yes"/>
      <point x="172" y="153"/>
      <point x="129" y="97"/>
    </contour>
    <contour>
      <point x="54" y="310" type="line"/>
      <point x="436" y="310" type="line"/>
      <point x="436" y="360" type="line"/>
      <point x="54" y="360" type="line"/>
    </contour>
  </outline>
</glyph>
<glyph name="currency" format="1">
  <advance width="580.35345"/>
  <unicode hex="00A4"/>
  <outline>
    <contour>
      <point x="293" y="129" type="curve" smooth="yes"/>
      <point x="440" y="129"/>
      <point x="491" y="227"/>
      <point x="491" y="346" type="curve" smooth="yes"/>
      <point x="491" y="466"/>
      <point x="440" y="563"/>
      <point x="293" y="563" type="curve" smooth="yes"/>
      <point x="145" y="563"/>
      <point x="88" y="466"/>
      <point x="88" y="346" type="curve" smooth="yes"/>
      <point x="88" y="227"/>
      <point x="145" y="129"/>
    </contour>
    <contour>
      <point x="117" y="83" type="line"/>
      <point x="186" y="165" type="line"/>
      <point x="145" y="207" type="line"/>
      <point x="73" y="121" type="line"/>
    </contour>
    <contour>
      <point x="466" y="83" type="line"/>
      <point x="511" y="121" type="line"/>
      <point x="439" y="207" type="line"/>
      <point x="397" y="165" type="line"/>
    </contour>
    <contour>
      <point x="293" y="184" type="curve" smooth="yes"/>
      <point x="178" y="184"/>
      <point x="152" y="247"/>
      <point x="152" y="332" type="curve" smooth="yes"/>
      <point x="152" y="360" type="line" smooth="yes"/>
      <point x="152" y="446"/>
      <point x="178" y="509"/>
      <point x="293" y="509" type="curve" smooth="yes"/>
      <point x="407" y="509"/>
      <point x="426" y="446"/>
      <point x="426" y="360" type="curve" smooth="yes"/>
      <point x="426" y="332" type="line" smooth="yes"/>
      <point x="426" y="247"/>
      <point x="407" y="184"/>
    </contour>
    <contour>
      <point x="145" y="484" type="line"/>
      <point x="186" y="526" type="line"/>
      <point x="117" y="608" type="line"/>
      <point x="73" y="570" type="line"/>
    </contour>
    <contour>
      <point x="439" y="484" type="line"/>
      <point x="511" y="570" type="line"/>
      <point x="466" y="608" type="line"/>
      <point x="397" y="526" type="line"/>
    </contour>
  </outline>
</glyph>
<glyph name="section" format="1">
  <advance width="579.36207"/>
  <unicode hex="00A7"/>
  <outline>
    <contour>
      <point x="297" y="-102" type="curve" smooth="yes"/>
      <point x="440" y="-102"/>
      <point x="509" y="-42"/>
      <point x="509" y="57" type="curve" smooth="yes"/>
      <point x="509" y="101"/>
      <point x="488" y="144"/>
      <point x="454" y="168" type="curve"/>
      <point x="454" y="190" type="line"/>
      <point x="498" y="213"/>
      <point x="522" y="247"/>
      <point x="522" y="292" type="curve" smooth="yes"/>
      <point x="522" y="349"/>
      <point x="482" y="395"/>
      <point x="379" y="417" type="curve" smooth="yes"/>
      <point x="243" y="442" type="line" smooth="yes"/>
      <point x="164" y="458"/>
      <point x="128" y="485"/>
      <point x="128" y="537" type="curve" smooth="yes"/>
      <point x="128" y="605"/>
      <point x="182" y="646"/>
      <point x="285" y="646" type="curve" smooth="yes"/>
      <point x="404" y="646"/>
      <point x="446" y="581"/>
      <point x="446" y="526" type="curve" smooth="yes"/>
      <point x="446" y="525" type="line"/>
      <point x="506" y="525" type="line"/>
      <point x="487" y="644"/>
      <point x="419" y="700"/>
      <point x="285" y="700" type="curve" smooth="yes"/>
      <point x="143" y="700"/>
      <point x="68" y="631"/>
      <point x="68" y="541" type="curve" smooth="yes"/>
      <point x="68" y="488"/>
      <point x="89" y="453"/>
      <point x="131" y="429" type="curve"/>
      <point x="131" y="407" type="line"/>
      <point x="87" y="385"/>
      <point x="63" y="351"/>
      <point x="63" y="305" type="curve" smooth="yes"/>
      <point x="63" y="249"/>
      <point x="103" y="202"/>
      <point x="205" y="180" type="curve" smooth="yes"/>
      <point x="341" y="155" type="line" smooth="yes"/>
      <point x="420" y="139"/>
      <point x="450" y="104"/>
      <point x="450" y="55" type="curve" smooth="yes"/>
      <point x="450" y="-11"/>
      <point x="401" y="-48"/>
      <point x="297" y="-48" type="curve" smooth="yes"/>
      <point x="167" y="-48"/>
      <point x="127" y="-2"/>
      <point x="127" y="68" type="curve" smooth="yes"/>
      <point x="127" y="69" type="line"/>
      <point x="66" y="69" type="line"/>
      <point x="79" y="-64"/>
      <point x="152" y="-102"/>
    </contour>
    <contour>
      <point x="419" y="199" type="curve"/>
      <point x="233" y="232" type="line" smooth="yes"/>
      <point x="150" y="250"/>
      <point x="123" y="280"/>
      <point x="123" y="323" type="curve" smooth="yes"/>
      <point x="123" y="355"/>
      <point x="138" y="381"/>
      <point x="166" y="399" type="curve"/>
      <point x="352" y="365" type="line" smooth="yes"/>
      <point x="435" y="347"/>
      <point x="462" y="319"/>
      <point x="462" y="275" type="curve" smooth="yes"/>
      <point x="462" y="242"/>
      <point x="447" y="217"/>
    </contour>
  </outline>
</glyph>
<glyph name="ordfeminine" format="1">
  <advance width="437.5"/>
  <unicode hex="00AA"/>
  <note>
ordfeminine
</note>
  <outline>
    <contour>
      <point x="171" y="353" type="curve" smooth="yes"/>
      <point x="224" y="353"/>
      <point x="257" y="371"/>
      <point x="277" y="413" type="curve"/>
      <point x="293" y="413" type="line"/>
      <point x="293" y="394" type="line" smooth="yes"/>
      <point x="293" y="371"/>
      <point x="305" y="359"/>
      <point x="329" y="359" type="curve" smooth="yes"/>
      <point x="386" y="359" type="line"/>
      <point x="386" y="398" type="line"/>
      <point x="335" y="398" type="line"/>
      <point x="335" y="574" type="line" smooth="yes"/>
      <point x="335" y="653"/>
      <point x="290" y="696"/>
      <point x="204" y="696" type="curve" smooth="yes"/>
      <point x="123" y="696"/>
      <point x="78" y="661"/>
      <point x="66" y="588" type="curve"/>
      <point x="119" y="588" type="line"/>
      <point x="119" y="589" type="line" smooth="yes"/>
      <point x="119" y="630"/>
      <point x="150" y="654"/>
      <point x="202" y="654" type="curve" smooth="yes"/>
      <point x="258" y="654"/>
      <point x="284" y="628"/>
      <point x="284" y="571" type="curve" smooth="yes"/>
      <point x="284" y="535" type="line"/>
      <point x="284" y="526" type="line"/>
      <point x="284" y="474" type="line" smooth="yes"/>
      <point x="284" y="422"/>
      <point x="252" y="394"/>
      <point x="190" y="394" type="curve" smooth="yes"/>
      <point x="138" y="394"/>
      <point x="111" y="414"/>
      <point x="111" y="450" type="curve" smooth="yes"/>
      <point x="111" y="451" type="line" smooth="yes"/>
      <point x="111" y="487"/>
      <point x="134" y="503"/>
      <point x="195" y="509" type="curve" smooth="yes"/>
      <point x="284" y="518" type="line"/>
      <point x="284" y="553" type="line"/>
      <point x="180" y="543" type="line" smooth="yes"/>
      <point x="94" y="535"/>
      <point x="58" y="504"/>
      <point x="58" y="445" type="curve" smooth="yes"/>
      <point x="58" y="386"/>
      <point x="100" y="353"/>
    </contour>
    <contour>
      <point x="204" y="690" type="move" name="top"/>
    </contour>
  </outline>
</glyph>
<glyph name="logicalnot" format="1">
  <advance width="474.58621"/>
  <unicode hex="00AC"/>
  <outline>
    <contour>
      <point x="378" y="169" type="line"/>
      <point x="432" y="169" type="line"/>
      <point x="432" y="362" type="line"/>
      <point x="38" y="362" type="line"/>
      <point x="38" y="312" type="line"/>
      <point x="415" y="312" type="line"/>
      <point x="378" y="341" type="line"/>
    </contour>
  </outline>
</glyph>
<glyph name="degree" format="1">
  <advance width="388.10345"/>
  <unicode hex="00B0"/>
  <outline>
    <contour>
      <point x="193" y="371" type="curve" smooth="yes"/>
      <point x="291" y="371"/>
      <point x="349" y="431"/>
      <point x="349" y="535" type="curve" smooth="yes"/>
      <point x="349" y="639"/>
      <point x="291" y="699"/>
      <point x="193" y="699" type="curve" smooth="yes"/>
      <point x="97" y="699"/>
      <point x="39" y="639"/>
      <point x="39" y="535" type="curve" smooth="yes"/>
      <point x="39" y="431"/>
      <point x="97" y="371"/>
    </contour>
    <contour>
      <point x="193" y="417" type="curve" smooth="yes"/>
      <point x="124" y="417"/>
      <point x="92" y="451"/>
      <point x="92" y="524" type="curve" smooth="yes"/>
      <point x="92" y="546" type="line" smooth="yes"/>
      <point x="92" y="619"/>
      <point x="124" y="653"/>
      <point x="193" y="653" type="curve" smooth="yes"/>
      <point x="263" y="653"/>
      <point x="296" y="619"/>
      <point x="296" y="546" type="curve" smooth="yes"/>
      <point x="296" y="524" type="line" smooth="yes"/>
      <point x="296" y="451"/>
      <point x="263" y="417"/>
    </contour>
  </outline>
</glyph>
<glyph name="twosuperior" format="1">
  <advance width="367.87069"/>
  <unicode hex="00B2"/>
  <note>
twosuperior
</note>
  <outline>
    <contour>
      <point x="42" y="433" type="curve" smooth="yes"/>
      <point x="42" y="368" type="line"/>
      <point x="323" y="368" type="line"/>
      <point x="323" y="469" type="line"/>
      <point x="274" y="469" type="line"/>
      <point x="274" y="409" type="line"/>
      <point x="69" y="409" type="line"/>
      <point x="98" y="386" type="line"/>
      <point x="98" y="432" type="line" smooth="yes"/>
      <point x="98" y="467"/>
      <point x="113" y="481"/>
      <point x="162" y="492" type="curve" smooth="yes"/>
      <point x="230" y="508" type="line" smooth="yes"/>
      <point x="299" y="525"/>
      <point x="328" y="549"/>
      <point x="328" y="598" type="curve" smooth="yes"/>
      <point x="328" y="600" type="line" smooth="yes"/>
      <point x="328" y="658"/>
      <point x="275" y="694"/>
      <point x="186" y="694" type="curve" smooth="yes"/>
      <point x="100" y="694"/>
      <point x="52" y="659"/>
      <point x="42" y="582" type="curve"/>
      <point x="100" y="582" type="line"/>
      <point x="100" y="587" type="line" smooth="yes"/>
      <point x="100" y="628"/>
      <point x="129" y="651"/>
      <point x="186" y="651" type="curve" smooth="yes"/>
      <point x="239" y="651"/>
      <point x="270" y="633"/>
      <point x="270" y="599" type="curve" smooth="yes"/>
      <point x="270" y="598" type="line" smooth="yes"/>
      <point x="270" y="572"/>
      <point x="253" y="561"/>
      <point x="208" y="550" type="curve" smooth="yes"/>
      <point x="140" y="534" type="line" smooth="yes"/>
      <point x="71" y="517"/>
      <point x="42" y="492"/>
    </contour>
  </outline>
</glyph>
<glyph name="paragraph" format="1">
  <advance width="530.57759"/>
  <unicode hex="00B6"/>
  <outline>
    <contour>
      <point x="378" y="0" type="line"/>
      <point x="434" y="0" type="line"/>
      <point x="434" y="690" type="line"/>
      <point x="238" y="690" type="line" smooth="yes"/>
      <point x="106" y="690"/>
      <point x="35" y="627"/>
      <point x="35" y="502" type="curve" smooth="yes"/>
      <point x="35" y="387"/>
      <point x="101" y="321"/>
      <point x="224" y="321" type="curve" smooth="yes"/>
      <point x="299" y="321" type="line"/>
      <point x="299" y="639" type="line"/>
      <point x="378" y="639" type="line"/>
    </contour>
  </outline>
</glyph>
<glyph name="guillemetright" format="1">
  <advance width="529.12069"/>
  <unicode hex="00BB"/>
  <outline>
    <contour>
      <point x="123" y="486" type="line"/>
      <point x="57" y="486" type="line"/>
      <point x="221" y="290" type="line"/>
      <point x="221" y="278" type="line"/>
      <point x="57" y="82" type="line"/>
      <point x="123" y="82" type="line"/>
      <point x="282" y="263" type="line"/>
      <point x="282" y="305" type="line"/>
    </contour>
    <contour>
      <point x="320" y="486" type="line"/>
      <point x="254" y="486" type="line"/>
      <point x="418" y="290" type="line"/>
      <point x="418" y="278" type="line"/>
      <point x="254" y="82" type="line"/>
      <point x="320" y="82" type="line"/>
      <point x="479" y="263" type="line"/>
      <point x="479" y="305" type="line"/>
    </contour>
  </outline>
</glyph>
<glyph name="multiply" format="1">
  <advance width="474.58621"/>
  <unicode hex="00D7"/>
  <outline>
    <contour>
      <point x="100" y="164" type="line"/>
      <point x="410" y="474" type="line"/>
      <point x="374" y="510" type="line"/>
      <point x="64" y="200" type="line"/>
    </contour>
    <contour>
      <point x="374" y="164" type="line"/>
      <point x="410" y="201" type="line"/>
      <point x="101" y="510" type="line"/>
      <point x="65" y="473" type="line"/>
    </contour>
  </outline>
</glyph>
<glyph name="ae" format="1">
  <advance width="898.17241"/>
  <unicode hex="00E6"/>
  <note>
ae
</note>
  <outline>
    <contour>
      <point x="229" y="-10" type="curve" smooth="yes"/>
      <point x="312" y="-10"/>
      <point x="372" y="19"/>
      <point x="410" y="96" type="curve"/>
      <point x="431" y="96" type="line"/>
      <point x="464" y="27"/>
      <point x="532" y="-10"/>
      <point x="622" y="-10" type="curve" smooth="yes"/>
      <point x="736" y="-10"/>
      <point x="811" y="49"/>
      <point x="835" y="161" type="curve"/>
      <point x="770" y="161" type="line"/>
      <point x="770" y="161" type="line"/>
      <point x="770" y="111"/>
      <point x="734" y="45"/>
      <point x="622" y="45" type="curve" smooth="yes"/>
      <point x="510" y="45"/>
      <point x="458" y="108"/>
      <point x="458" y="247" type="curve" smooth="yes"/>
      <point x="458" y="288" type="line" smooth="yes"/>
      <point x="458" y="427"/>
      <point x="510" y="490"/>
      <point x="622" y="490" type="curve" smooth="yes"/>
      <point x="734" y="490"/>
      <point x="786" y="427"/>
      <point x="786" y="288" type="curve" smooth="yes"/>
      <point x="786" y="275" type="line"/>
      <point x="813" y="307" type="line"/>
      <point x="436" y="307" type="line"/>
      <point x="436" y="261" type="line"/>
      <point x="843" y="261" type="line"/>
      <point x="843" y="287" type="line" smooth="yes"/>
      <point x="843" y="454"/>
      <point x="761" y="544"/>
      <point x="622" y="544" type="curve" smooth="yes"/>
      <point x="534" y="544"/>
      <point x="471" y="508"/>
      <point x="447" y="456" type="curve"/>
      <point x="426" y="456" type="line"/>
      <point x="410" y="510"/>
      <point x="356" y="544"/>
      <point x="267" y="544" type="curve" smooth="yes"/>
      <point x="153" y="544"/>
      <point x="86" y="488"/>
      <point x="68" y="373" type="curve"/>
      <point x="132" y="373" type="line"/>
      <point x="132" y="373" type="line"/>
      <point x="132" y="435"/>
      <point x="169" y="489"/>
      <point x="266" y="489" type="curve" smooth="yes"/>
      <point x="356" y="489"/>
      <point x="396" y="444"/>
      <point x="396" y="341" type="curve" smooth="yes"/>
      <point x="396" y="289" type="line"/>
      <point x="396" y="277" type="line"/>
      <point x="396" y="186" type="line" smooth="yes"/>
      <point x="396" y="91"/>
      <point x="347" y="45"/>
      <point x="246" y="45" type="curve" smooth="yes"/>
      <point x="160" y="45"/>
      <point x="118" y="78"/>
      <point x="118" y="145" type="curve" smooth="yes"/>
      <point x="118" y="145" type="line" smooth="yes"/>
      <point x="118" y="209"/>
      <point x="161" y="241"/>
      <point x="252" y="249" type="curve" smooth="yes"/>
      <point x="396" y="263" type="line"/>
      <point x="396" y="310" type="line"/>
      <point x="236" y="294" type="line" smooth="yes"/>
      <point x="118" y="282"/>
      <point x="54" y="230"/>
      <point x="54" y="137" type="curve" smooth="yes"/>
      <point x="54" y="43"/>
      <point x="118" y="-10"/>
    </contour>
    <contour>
      <point x="427" y="534" type="move" name="top"/>
    </contour>
  </outline>
</glyph>
<glyph name="iacute" format="1">
  <advance width="272"/>
  <unicode hex="00ED"/>
  <note>
iacute
</note>
  <outline>
    <component base="idotless"/>
    <component base="acutecomb" xOffset="-53"/>
    <contour>
      <point x="147" y="534" type="move" name="top"/>
    </contour>
  </outline>
</glyph>
<glyph name="icircumflex" format="1">
  <advance width="272"/>
  <unicode hex="00EE"/>
  <note>
icircumflex
</note>
  <outline>
    <component base="idotless"/>
    <component base="circumflexcomb" xOffset="-53"/>
    <contour>
      <point x="147" y="534" type="move" name="top"/>
    </contour>
  </outline>
</glyph>
<glyph name="eth" format="1">
  <advance width="577.46552"/>
  <unicode hex="00F0"/>
  <note>
eth
</note>
  <outline>
    <contour>
      <point x="292" y="-10" type="curve" smooth="yes"/>
      <point x="437" y="-10"/>
      <point x="521" y="84"/>
      <point x="521" y="258" type="curve" smooth="yes"/>
      <point x="521" y="458"/>
      <point x="421" y="593"/>
      <point x="323" y="690" type="curve"/>
      <point x="253" y="690" type="line"/>
      <point x="347" y="609"/>
      <point x="422" y="506"/>
      <point x="445" y="429" type="curve"/>
      <point x="424" y="429" type="line"/>
      <point x="404" y="470"/>
      <point x="342" y="504"/>
      <point x="265" y="504" type="curve" smooth="yes"/>
      <point x="134" y="504"/>
      <point x="55" y="411"/>
      <point x="55" y="247" type="curve" smooth="yes"/>
      <point x="55" y="83"/>
      <point x="142" y="-10"/>
    </contour>
    <contour>
      <point x="292" y="45" type="curve" smooth="yes"/>
      <point x="176" y="45"/>
      <point x="121" y="104"/>
      <point x="121" y="233" type="curve" smooth="yes"/>
      <point x="121" y="261" type="line" smooth="yes"/>
      <point x="121" y="390"/>
      <point x="175" y="449"/>
      <point x="289" y="449" type="curve" smooth="yes"/>
      <point x="403" y="449"/>
      <point x="456" y="390"/>
      <point x="456" y="262" type="curve" smooth="yes"/>
      <point x="456" y="234" type="line" smooth="yes"/>
      <point x="456" y="105"/>
      <point x="403" y="45"/>
    </contour>
    <contour>
      <point x="220" y="542" type="line"/>
      <point x="496" y="598" type="line"/>
      <point x="496" y="644" type="line"/>
      <point x="220" y="587" type="line"/>
    </contour>
  </outline>
</glyph>
<glyph name="divide" format="1">
  <advance width="474.58621"/>
  <unicode hex="00F7"/>
  <outline>
    <contour>
      <point x="201" y="460" type="line"/>
      <point x="272" y="460" type="line"/>
      <point x="272" y="531" type="line"/>
      <point x="201" y="531" type="line"/>
    </contour>
    <contour>
      <point x="201" y="143" type="line"/>
      <point x="272" y="143" type="line"/>
      <point x="272" y="214" type="line"/>
      <point x="201" y="214" type="line"/>
    </contour>
    <contour>
      <point x="40" y="312" type="line"/>
      <point x="434" y="312" type="line"/>
      <point x="434" y="362" type="line"/>
      <point x="40" y="362" type="line"/>
    </contour>
  </outline>
</glyph>
<glyph name="oslash" format="1">
  <advance width="587.13793"/>
  <unicode hex="00F8"/>
  <note>
oslash
</note>
  <outline>
    <contour>
      <point x="294" y="-10" type="curve" smooth="yes"/>
      <point x="443" y="-10"/>
      <point x="530" y="88"/>
      <point x="530" y="267" type="curve" smooth="yes"/>
      <point x="530" y="446"/>
      <point x="443" y="544"/>
      <point x="294" y="544" type="curve" smooth="yes"/>
      <point x="145" y="544"/>
      <point x="57" y="446"/>
      <point x="57" y="267" type="curve" smooth="yes"/>
      <point x="57" y="88"/>
      <point x="145" y="-10"/>
    </contour>
    <contour>
      <point x="294" y="45" type="curve" smooth="yes"/>
      <point x="177" y="45"/>
      <point x="123" y="107"/>
      <point x="123" y="247" type="curve" smooth="yes"/>
      <point x="123" y="287" type="line" smooth="yes"/>
      <point x="123" y="426"/>
      <point x="177" y="489"/>
      <point x="294" y="489" type="curve" smooth="yes"/>
      <point x="410" y="489"/>
      <point x="464" y="427"/>
      <point x="464" y="287" type="curve" smooth="yes"/>
      <point x="464" y="247" type="line" smooth="yes"/>
      <point x="464" y="108"/>
      <point x="410" y="45"/>
    </contour>
    <contour>
      <point x="58" y="-10" type="line"/>
      <point x="118" y="-10" type="line"/>
      <point x="170" y="58" type="line"/>
      <point x="172" y="58" type="line"/>
      <point x="453" y="444" type="line"/>
      <point x="455" y="444" type="line"/>
      <point x="529" y="544" type="line"/>
      <point x="469" y="544" type="line"/>
      <point x="417" y="476" type="line"/>
      <point x="415" y="476" type="line"/>
      <point x="134" y="90" type="line"/>
      <point x="132" y="90" type="line"/>
    </contour>
    <contour>
      <point x="294" y="534" type="move" name="top"/>
    </contour>
  </outline>
</glyph>
<glyph name="eogonek" format="1">
  <advance width="569.46552"/>
  <unicode hex="0119"/>
  <outline>
    <contour>
      <point x="290" y="-10" type="curve" smooth="yes"/>
      <point x="407" y="-10"/>
      <point x="482" y="49"/>
      <point x="506" y="161" type="curve"/>
      <point x="441" y="161" type="line"/>
      <point x="441" y="161" type="line"/>
      <point x="441" y="111"/>
      <point x="405" y="45"/>
      <point x="290" y="45" type="curve" smooth="yes"/>
      <point x="175" y="45"/>
      <point x="122" y="108"/>
      <point x="122" y="247" type="curve" smooth="yes"/>
      <point x="122" y="288" type="line" smooth="yes"/>
      <point x="122" y="427"/>
      <point x="175" y="490"/>
      <point x="290" y="490" type="curve" smooth="yes"/>
      <point x="405" y="490"/>
      <point x="457" y="427"/>
      <point x="457" y="288" type="curve" smooth="yes"/>
      <point x="457" y="272" type="line"/>
      <point x="485" y="307" type="line"/>
      <point x="101" y="307" type="line"/>
      <point x="101" y="261" type="line"/>
      <point x="515" y="261" type="line"/>
      <point x="515" y="287" type="line" smooth="yes"/>
      <point x="515" y="454"/>
      <point x="432" y="544"/>
      <point x="290" y="544" type="curve" smooth="yes"/>
      <point x="142" y="544"/>
      <point x="56" y="446"/>
      <point x="56" y="267" type="curve" smooth="yes"/>
      <point x="56" y="88"/>
      <point x="142" y="-10"/>
    </contour>
    <contour>
      <point x="362" y="-143" type="curve" smooth="yes"/>
      <point x="455" y="-143" type="line"/>
      <point x="455" y="-101" type="line"/>
      <point x="369" y="-101" type="line" smooth="yes"/>
      <point x="349" y="-101"/>
      <point x="338" y="-92"/>
      <point x="338" y="-75" type="curve" smooth="yes"/>
      <point x="338" y="-53"/>
      <point x="364" y="-23"/>
      <point x="432" y="33" type="curve"/>
      <point x="344" y="13" type="line"/>
      <point x="344" y="-22" type="line"/>
      <point x="309" y="-36"/>
      <point x="291" y="-54"/>
      <point x="291" y="-87" type="curve" smooth="yes"/>
      <point x="291" y="-123"/>
      <point x="316" y="-143"/>
    </contour>
    <contour>
      <point x="365" y="0" type="move" name="ogonek"/>
    </contour>
    <contour>
      <point x="290" y="534" type="move" name="top"/>
    </contour>
  </outline>
</glyph>
<glyph name="idotless" format="1">
  <advance width="271.87931"/>
  <unicode hex="0131"/>
  <outline>
    <contour>
      <point x="118" y="0" type="line"/>
      <point x="180" y="0" type="line"/>
      <point x="180" y="534" type="line"/>
      <point x="24" y="534" type="line"/>
      <point x="24" y="483" type="line"/>
      <point x="118" y="483" type="line"/>
    </contour>
    <contour>
      <point x="147" y="534" type="move" name="top"/>
    </contour>
  </outline>
</glyph>
<glyph name="oe" format="1">
  <advance width="962.32759"/>
  <unicode hex="0153"/>
  <note>
oe
</note>
  <outline>
    <contour>
      <point x="289" y="-10" type="curve" smooth="yes"/>
      <point x="386" y="-10"/>
      <point x="450" y="32"/>
      <point x="478" y="92" type="curve"/>
      <point x="500" y="92" type="line"/>
      <point x="528" y="32"/>
      <point x="589" y="-10"/>
      <point x="686" y="-10" type="curve" smooth="yes"/>
      <point x="800" y="-10"/>
      <point x="875" y="49"/>
      <point x="899" y="161" type="curve"/>
      <point x="834" y="161" type="line"/>
      <point x="834" y="161" type="line"/>
      <point x="834" y="111"/>
      <point x="798" y="45"/>
      <point x="686" y="45" type="curve" smooth="yes"/>
      <point x="574" y="45"/>
      <point x="522" y="108"/>
      <point x="522" y="247" type="curve" smooth="yes"/>
      <point x="522" y="288" type="line" smooth="yes"/>
      <point x="522" y="427"/>
      <point x="574" y="490"/>
      <point x="686" y="490" type="curve" smooth="yes"/>
      <point x="798" y="490"/>
      <point x="850" y="427"/>
      <point x="850" y="288" type="curve" smooth="yes"/>
      <point x="850" y="271" type="line"/>
      <point x="888" y="307" type="line"/>
      <point x="500" y="307" type="line"/>
      <point x="500" y="261" type="line"/>
      <point x="908" y="261" type="line"/>
      <point x="908" y="287" type="line" smooth="yes"/>
      <point x="908" y="454"/>
      <point x="825" y="544"/>
      <point x="686" y="544" type="curve" smooth="yes"/>
      <point x="590" y="544"/>
      <point x="528" y="502"/>
      <point x="500" y="442" type="curve"/>
      <point x="478" y="442" type="line"/>
      <point x="450" y="502"/>
      <point x="386" y="544"/>
      <point x="289" y="544" type="curve" smooth="yes"/>
      <point x="142" y="544"/>
      <point x="56" y="446"/>
      <point x="56" y="267" type="curve" smooth="yes"/>
      <point x="56" y="88"/>
      <point x="142" y="-10"/>
    </contour>
    <contour>
      <point x="289" y="45" type="curve" smooth="yes"/>
      <point x="175" y="45"/>
      <point x="122" y="108"/>
      <point x="122" y="247" type="curve" smooth="yes"/>
      <point x="122" y="287" type="line" smooth="yes"/>
      <point x="122" y="426"/>
      <point x="175" y="489"/>
      <point x="289" y="489" type="curve" smooth="yes"/>
      <point x="404" y="489"/>
      <point x="456" y="426"/>
      <point x="456" y="287" type="curve" smooth="yes"/>
      <point x="456" y="247" type="line" smooth="yes"/>
      <point x="456" y="108"/>
      <point x="404" y="45"/>
    </contour>
  </outline>
</glyph>
<glyph name="caron" format="1">
  <advance width="400"/>
  <unicode hex="02C7"/>
  <outline>
    <component base="caroncomb" identifier="3522345E"/>
    <contour>
      <point x="200" y="534" type="move" name="_top"/>
    </contour>
  </outline>
</glyph>
<glyph name="breve" format="1">
  <advance width="400"/>
  <unicode hex="02D8"/>
  <outline>
    <contour>
      <point x="200" y="574" type="curve" smooth="yes"/>
      <point x="282" y="574"/>
      <point x="330" y="617"/>
      <point x="339" y="701" type="curve"/>
      <point x="287" y="701" type="line"/>
      <point x="287" y="701" type="line"/>
      <point x="287" y="649"/>
      <point x="255" y="619"/>
      <point x="200" y="619" type="curve" smooth="yes"/>
      <point x="145" y="619"/>
      <point x="113" y="649"/>
      <point x="113" y="701" type="curve"/>
      <point x="113" y="701" type="line"/>
      <point x="61" y="701" type="line"/>
      <point x="70" y="617"/>
      <point x="118" y="574"/>
    </contour>
    <contour>
      <point x="200" y="534" type="move" name="_top"/>
    </contour>
  </outline>
</glyph>
<glyph name="dieresiscomb" format="1">
  <advance width="0"/>
  <unicode hex="0308"/>
  <outline>
    <contour>
      <point x="63" y="615" type="line"/>
      <point x="144" y="615" type="line"/>
      <point x="144" y="690" type="line"/>
      <point x="63" y="690" type="line"/>
    </contour>
    <contour>
      <point x="256" y="615" type="line"/>
      <point x="337" y="615" type="line"/>
      <point x="337" y="690" type="line"/>
      <point x="256" y="690" type="line"/>
    </contour>
    <contour>
      <point x="200" y="534" type="move" name="_top"/>
    </contour>
  </outline>
</glyph>
<glyph name="ringcomb" format="1">
  <advance width="0"/>
  <unicode hex="030A"/>
  <note>
ring
</note>
  <outline>
    <contour>
      <point x="200" y="570" type="curve" smooth="yes"/>
      <point x="254" y="570"/>
      <point x="291" y="604"/>
      <point x="291" y="656" type="curve" smooth="yes"/>
      <point x="291" y="709"/>
      <point x="254" y="743"/>
      <point x="200" y="743" type="curve" smooth="yes"/>
      <point x="146" y="743"/>
      <point x="109" y="709"/>
      <point x="109" y="656" type="curve" smooth="yes"/>
      <point x="109" y="604"/>
      <point x="146" y="570"/>
    </contour>
    <contour>
      <point x="200" y="608" type="curve" smooth="yes"/>
      <point x="170" y="608"/>
      <point x="155" y="624"/>
      <point x="155" y="655" type="curve" smooth="yes"/>
      <point x="155" y="657" type="line" smooth="yes"/>
      <point x="155" y="689"/>
      <point x="170" y="705"/>
      <point x="200" y="705" type="curve" smooth="yes"/>
      <point x="230" y="705"/>
      <point x="245" y="689"/>
      <point x="245" y="657" type="curve" smooth="yes"/>
      <point x="245" y="655" type="line" smooth="yes"/>
      <point x="245" y="624"/>
      <point x="230" y="608"/>
    </contour>
    <contour>
      <point x="200" y="534" type="move" name="_top"/>
    </contour>
  </outline>
</glyph>
<glyph name="cedillacomb" format="1">
  <advance width="0"/>
  <unicode hex="0327"/>
  <note>
cedilla
</note>
  <outline>
    <contour>
      <point x="135" y="-164" type="line"/>
      <point x="243" y="-164" type="line" smooth="yes"/>
      <point x="294" y="-164"/>
      <point x="322" y="-141"/>
      <point x="322" y="-98" type="curve" smooth="yes"/>
      <point x="322" y="-56"/>
      <point x="294" y="-34"/>
      <point x="243" y="-34" type="curve" smooth="yes"/>
      <point x="205" y="-34" type="line"/>
      <point x="223" y="-51" type="line"/>
      <point x="223" y="10" type="line"/>
      <point x="177" y="10" type="line"/>
      <point x="177" y="-71" type="line"/>
      <point x="240" y="-71" type="line" smooth="yes"/>
      <point x="261" y="-71"/>
      <point x="272" y="-79"/>
      <point x="272" y="-96" type="curve" smooth="yes"/>
      <point x="272" y="-113"/>
      <point x="261" y="-121"/>
      <point x="240" y="-121" type="curve" smooth="yes"/>
      <point x="135" y="-121" type="line"/>
    </contour>
    <contour>
      <point x="200" y="0" type="move" name="_bottom"/>
    </contour>
  </outline>
</glyph>
<glyph name="pi" format="1">
  <advance width="656.17241"/>
  <unicode hex="03C0"/>
  <outline>
    <contour>
      <point x="498" y="0" type="curve" smooth="yes"/>
      <point x="612" y="0" type="line"/>
      <point x="612" y="51" type="line"/>
      <point x="513" y="51" type="line"/>
      <point x="513" y="514" type="line"/>
      <point x="452" y="514" type="line"/>
      <point x="452" y="47" type="line" smooth="yes"/>
      <point x="452" y="16"/>
      <point x="468" y="0"/>
    </contour>
    <contour>
      <point x="125" y="0" type="line"/>
      <point x="187" y="0" type="line"/>
      <point x="187" y="514" type="line"/>
      <point x="125" y="514" type="line"/>
    </contour>
    <contour>
      <point x="27" y="483" type="line"/>
      <point x="612" y="483" type="line"/>
      <point x="612" y="534" type="line"/>
      <point x="27" y="534" type="line"/>
    </contour>
  </outline>
</glyph>
<glyph name="endash" format="1">
  <advance width="558.61207"/>
  <unicode hex="2013"/>
  <outline>
    <contour>
      <point x="59" y="259" type="line"/>
      <point x="499" y="259" type="line"/>
      <point x="499" y="309" type="line"/>
      <point x="59" y="309" type="line"/>
    </contour>
  </outline>
</glyph>
<glyph name="quotedblleft" format="1">
  <advance width="400.16379"/>
  <unicode hex="201C"/>
  <outline>
    <contour>
      <point x="314" y="690" type="line"/>
      <point x="275" y="690" type="line"/>
      <point x="227" y="591" type="line"/>
      <point x="227" y="512" type="line"/>
      <point x="310" y="512" type="line"/>
      <point x="310" y="591" type="line"/>
      <point x="269" y="591" type="line"/>
    </contour>
    <contour>
      <point x="173" y="690" type="line"/>
      <point x="134" y="690" type="line"/>
      <point x="87" y="591" type="line"/>
      <point x="87" y="512" type="line"/>
      <point x="169" y="512" type="line"/>
      <point x="169" y="591" type="line"/>
      <point x="128" y="591" type="line"/>
    </contour>
  </outline>
</glyph>
<glyph name="dagger" format="1">
  <advance width="428.71552"/>
  <unicode hex="2020"/>
  <outline>
    <contour>
      <point x="32" y="461" type="line"/>
      <point x="397" y="461" type="line"/>
      <point x="397" y="515" type="line"/>
      <point x="319" y="515" type="line"/>
      <point x="238" y="492" type="line"/>
      <point x="232" y="497" type="line"/>
      <point x="244" y="591" type="line"/>
      <point x="244" y="690" type="line"/>
      <point x="184" y="690" type="line"/>
      <point x="184" y="591" type="line"/>
      <point x="196" y="497" type="line"/>
      <point x="190" y="492" type="line"/>
      <point x="109" y="515" type="line"/>
      <point x="32" y="515" type="line"/>
    </contour>
    <contour>
      <point x="194" y="0" type="line"/>
      <point x="234" y="0" type="line"/>
      <point x="245" y="338" type="line"/>
      <point x="230" y="477" type="line"/>
      <point x="198" y="477" type="line"/>
      <point x="183" y="338" type="line"/>
    </contour>
  </outline>
</glyph>
<glyph name="daggerdbl" format="1">
  <advance width="489.40517"/>
  <unicode hex="2021"/>
  <outline>
    <contour>
      <point x="62" y="461" type="line"/>
      <point x="426" y="461" type="line"/>
      <point x="426" y="515" type="line"/>
      <point x="349" y="515" type="line"/>
      <point x="268" y="492" type="line"/>
      <point x="262" y="497" type="line"/>
      <point x="274" y="591" type="line"/>
      <point x="274" y="690" type="line"/>
      <point x="215" y="690" type="line"/>
      <point x="215" y="591" type="line"/>
      <point x="227" y="497" type="line"/>
      <point x="221" y="492" type="line"/>
      <point x="140" y="515" type="line"/>
      <point x="62" y="515" type="line"/>
    </contour>
    <contour>
      <point x="215" y="0" type="line"/>
      <point x="274" y="0" type="line"/>
      <point x="274" y="99" type="line"/>
      <point x="262" y="193" type="line"/>
      <point x="268" y="198" type="line"/>
      <point x="349" y="175" type="line"/>
      <point x="426" y="175" type="line"/>
      <point x="426" y="229" type="line"/>
      <point x="62" y="229" type="line"/>
      <point x="62" y="175" type="line"/>
      <point x="140" y="175" type="line"/>
      <point x="221" y="198" type="line"/>
      <point x="227" y="193" type="line"/>
      <point x="215" y="99" type="line"/>
    </contour>
    <contour>
      <point x="209" y="309" type="line"/>
      <point x="280" y="309" type="line"/>
      <point x="280" y="381" type="line"/>
      <point x="209" y="381" type="line"/>
    </contour>
  </outline>
</glyph>
<glyph name="fraction" format="1">
  <advance width="34.18103"/>
  <unicode hex="2044"/>
  <note>
fraction
</note>
  <outline>
    <contour>
      <point x="-239" y="0" type="line"/>
      <point x="-177" y="0" type="line"/>
      <point x="4" y="322" type="line"/>
      <point x="-58" y="322" type="line"/>
    </contour>
    <contour>
      <point x="30" y="368" type="line"/>
      <point x="92" y="368" type="line"/>
      <point x="272" y="690" type="line"/>
      <point x="210" y="690" type="line"/>
    </contour>
  </outline>
</glyph>
<glyph name="foursuperior" format="1">
  <advance width="354.73276"/>
  <unicode hex="2074"/>
  <note>
uniF009
</note>
  <outline>
    <contour>
      <point x="32" y="446" type="line"/>
      <point x="327" y="446" type="line"/>
      <point x="327" y="484" type="line"/>
      <point x="91" y="484" type="line"/>
      <point x="205" y="690" type="line"/>
      <point x="146" y="690" type="line"/>
      <point x="32" y="484" type="line"/>
    </contour>
    <contour>
      <point x="206" y="368" type="line"/>
      <point x="263" y="368" type="line"/>
      <point x="263" y="567" type="line"/>
      <point x="226" y="567" type="line"/>
      <point x="206" y="516" type="line"/>
    </contour>
  </outline>
</glyph>
<glyph name="euro" format="1">
  <advance width="711.06034"/>
  <unicode hex="20AC"/>
  <outline>
    <contour>
      <point x="400" y="-10" type="curve" smooth="yes"/>
      <point x="539" y="-10"/>
      <point x="633" y="68"/>
      <point x="661" y="220" type="curve"/>
      <point x="595" y="220" type="line"/>
      <point x="595" y="216" type="line" smooth="yes"/>
      <point x="595" y="134"/>
      <point x="537" y="47"/>
      <point x="400" y="47" type="curve" smooth="yes"/>
      <point x="264" y="47"/>
      <point x="194" y="127"/>
      <point x="194" y="302" type="curve" smooth="yes"/>
      <point x="194" y="388" type="line" smooth="yes"/>
      <point x="194" y="563"/>
      <point x="264" y="643"/>
      <point x="400" y="643" type="curve" smooth="yes"/>
      <point x="534" y="643"/>
      <point x="595" y="558"/>
      <point x="595" y="484" type="curve" smooth="yes"/>
      <point x="595" y="484" type="line"/>
      <point x="658" y="484" type="line"/>
      <point x="628" y="627"/>
      <point x="535" y="700"/>
      <point x="400" y="700" type="curve" smooth="yes"/>
      <point x="230" y="700"/>
      <point x="127" y="582"/>
      <point x="127" y="345" type="curve" smooth="yes"/>
      <point x="127" y="108"/>
      <point x="230" y="-10"/>
    </contour>
    <contour>
      <point x="54" y="269" type="line"/>
      <point x="475" y="269" type="line"/>
      <point x="475" y="317" type="line"/>
      <point x="54" y="317" type="line"/>
    </contour>
    <contour>
      <point x="54" y="387" type="line"/>
      <point x="475" y="387" type="line"/>
      <point x="475" y="435" type="line"/>
      <point x="54" y="435" type="line"/>
    </contour>
  </outline>
</glyph>
<glyph name="trademark" format="1">
  <advance width="910.51724"/>
  <unicode hex="2122"/>
  <outline>
    <contour>
      <point x="176" y="304" type="line"/>
      <point x="232" y="304" type="line"/>
      <point x="232" y="648" type="line"/>
      <point x="314" y="648" type="line"/>
      <point x="314" y="566" type="line"/>
      <point x="362" y="566" type="line"/>
      <point x="362" y="690" type="line"/>
      <point x="46" y="690" type="line"/>
      <point x="46" y="566" type="line"/>
      <point x="93" y="566" type="line"/>
      <point x="93" y="648" type="line"/>
      <point x="176" y="648" type="line"/>
    </contour>
    <contour>
      <point x="420" y="304" type="line"/>
      <point x="475" y="304" type="line"/>
      <point x="475" y="643" type="line"/>
      <point x="490" y="643" type="line"/>
      <point x="600" y="304" type="line"/>
      <point x="651" y="304" type="line"/>
      <point x="760" y="643" type="line"/>
      <point x="775" y="643" type="line"/>
      <point x="775" y="304" type="line"/>
      <point x="832" y="304" type="line"/>
      <point x="832" y="690" type="line"/>
      <point x="726" y="690" type="line"/>
      <point x="633" y="409" type="line"/>
      <point x="619" y="409" type="line"/>
      <point x="525" y="690" type="line"/>
      <point x="420" y="690" type="line"/>
    </contour>
  </outline>
</glyph>
<glyph name="partialdiff" format="1">
  <advance width="579.40517"/>
  <unicode hex="2202"/>
  <outline>
    <contour>
      <point x="292" y="-10" type="curve" smooth="yes"/>
      <point x="438" y="-10"/>
      <point x="522" y="84"/>
      <point x="522" y="258" type="curve" smooth="yes"/>
      <point x="522" y="490"/>
      <point x="403" y="661"/>
      <point x="161" y="700" type="curve"/>
      <point x="161" y="643" type="line"/>
      <point x="329" y="619"/>
      <point x="419" y="515"/>
      <point x="447" y="429" type="curve"/>
      <point x="425" y="429" type="line"/>
      <point x="403" y="470"/>
      <point x="343" y="504"/>
      <point x="266" y="504" type="curve" smooth="yes"/>
      <point x="134" y="504"/>
      <point x="57" y="411"/>
      <point x="57" y="247" type="curve" smooth="yes"/>
      <point x="57" y="83"/>
      <point x="143" y="-10"/>
    </contour>
    <contour>
      <point x="292" y="45" type="curve" smooth="yes"/>
      <point x="178" y="45"/>
      <point x="122" y="104"/>
      <point x="122" y="233" type="curve" smooth="yes"/>
      <point x="122" y="261" type="line" smooth="yes"/>
      <point x="122" y="390"/>
      <point x="176" y="449"/>
      <point x="290" y="449" type="curve" smooth="yes"/>
      <point x="403" y="449"/>
      <point x="457" y="390"/>
      <point x="457" y="261" type="curve" smooth="yes"/>
      <point x="457" y="233" type="line" smooth="yes"/>
      <point x="457" y="105"/>
      <point x="404" y="45"/>
    </contour>
  </outline>
</glyph>
<glyph name="increment" format="1">
  <advance width="618.68103"/>
  <unicode hex="2206"/>
  <outline>
    <contour>
      <point x="43" y="0" type="line"/>
      <point x="575" y="0" type="line"/>
      <point x="575" y="53" type="line"/>
      <point x="366" y="690" type="line"/>
      <point x="251" y="690" type="line"/>
      <point x="43" y="53" type="line"/>
    </contour>
    <contour>
      <point x="109" y="53" type="line"/>
      <point x="297" y="633" type="line"/>
      <point x="319" y="633" type="line"/>
      <point x="507" y="53" type="line"/>
    </contour>
  </outline>
</glyph>
<glyph name="product" format="1">
  <advance width="732.22414"/>
  <unicode hex="220F"/>
  <outline>
    <contour>
      <point x="531" y="0" type="line"/>
      <point x="594" y="0" type="line"/>
      <point x="594" y="637" type="line"/>
      <point x="702" y="637" type="line"/>
      <point x="702" y="690" type="line"/>
      <point x="31" y="690" type="line"/>
      <point x="31" y="637" type="line"/>
      <point x="138" y="637" type="line"/>
      <point x="138" y="0" type="line"/>
      <point x="202" y="0" type="line"/>
      <point x="202" y="637" type="line"/>
      <point x="531" y="637" type="line"/>
    </contour>
  </outline>
</glyph>
<glyph name="summation" format="1">
  <advance width="572.21552"/>
  <unicode hex="2211"/>
  <outline>
    <contour>
      <point x="50" y="0" type="line"/>
      <point x="527" y="0" type="line"/>
      <point x="527" y="53" type="line"/>
      <point x="121" y="53" type="line"/>
      <point x="346" y="345" type="line"/>
      <point x="126" y="637" type="line"/>
      <point x="510" y="637" type="line"/>
      <point x="510" y="690" type="line"/>
      <point x="54" y="690" type="line"/>
      <point x="54" y="637" type="line"/>
      <point x="275" y="345" type="line"/>
      <point x="50" y="53" type="line"/>
    </contour>
  </outline>
</glyph>
<glyph name="infinity" format="1">
  <advance width="671.90517"/>
  <unicode hex="221E"/>
  <outline>
    <contour>
      <point x="189" y="212" type="curve" smooth="yes"/>
      <point x="247" y="212"/>
      <point x="295" y="242"/>
      <point x="325" y="298" type="curve"/>
      <point x="346" y="298" type="line"/>
      <point x="377" y="242"/>
      <point x="425" y="212"/>
      <point x="482" y="212" type="curve" smooth="yes"/>
      <point x="557" y="212"/>
      <point x="604" y="260"/>
      <point x="604" y="337" type="curve" smooth="yes"/>
      <point x="604" y="414"/>
      <point x="557" y="462"/>
      <point x="482" y="462" type="curve" smooth="yes"/>
      <point x="425" y="462"/>
      <point x="377" y="432"/>
      <point x="346" y="376" type="curve"/>
      <point x="325" y="376" type="line"/>
      <point x="294" y="432"/>
      <point x="247" y="462"/>
      <point x="189" y="462" type="curve" smooth="yes"/>
      <point x="114" y="462"/>
      <point x="67" y="414"/>
      <point x="67" y="337" type="curve" smooth="yes"/>
      <point x="67" y="260"/>
      <point x="114" y="212"/>
    </contour>
    <contour>
      <point x="193" y="264" type="curve" smooth="yes"/>
      <point x="148" y="264"/>
      <point x="123" y="288"/>
      <point x="123" y="334" type="curve" smooth="yes"/>
      <point x="123" y="340" type="line" smooth="yes"/>
      <point x="123" y="386"/>
      <point x="148" y="410"/>
      <point x="193" y="410" type="curve" smooth="yes"/>
      <point x="240" y="410"/>
      <point x="280" y="385"/>
      <point x="314" y="337" type="curve"/>
      <point x="280" y="289"/>
      <point x="240" y="264"/>
    </contour>
    <contour>
      <point x="478" y="264" type="curve" smooth="yes"/>
      <point x="432" y="264"/>
      <point x="391" y="289"/>
      <point x="358" y="337" type="curve"/>
      <point x="391" y="385"/>
      <point x="432" y="410"/>
      <point x="478" y="410" type="curve" smooth="yes"/>
      <point x="524" y="410"/>
      <point x="549" y="386"/>
      <point x="549" y="340" type="curve" smooth="yes"/>
      <point x="549" y="334" type="line" smooth="yes"/>
      <point x="549" y="288"/>
      <point x="524" y="264"/>
    </contour>
  </outline>
</glyph>
<glyph name="notequal" format="1">
  <advance width="474.58621"/>
  <unicode hex="2260"/>
  <outline>
    <contour>
      <point x="131" y="135" type="line"/>
      <point x="181" y="135" type="line"/>
      <point x="346" y="539" type="line"/>
      <point x="296" y="539" type="line"/>
    </contour>
    <contour>
      <point x="41" y="394" type="line"/>
      <point x="436" y="394" type="line"/>
      <point x="436" y="444" type="line"/>
      <point x="41" y="444" type="line"/>
    </contour>
    <contour>
      <point x="41" y="230" type="line"/>
      <point x="436" y="230" type="line"/>
      <point x="436" y="280" type="line"/>
      <point x="41" y="280" type="line"/>
    </contour>
  </outline>
</glyph>
<glyph name="greaterequal" format="1">
  <advance width="474.58621"/>
  <unicode hex="2265"/>
  <outline>
    <contour>
      <point x="43" y="173" type="line"/>
      <point x="438" y="334" type="line"/>
      <point x="438" y="410" type="line"/>
      <point x="43" y="571" type="line"/>
      <point x="43" y="515" type="line"/>
      <point x="382" y="383" type="line"/>
      <point x="382" y="361" type="line"/>
      <point x="43" y="229" type="line"/>
    </contour>
    <contour>
      <point x="43" y="24" type="line"/>
      <point x="438" y="24" type="line"/>
      <point x="438" y="75" type="line"/>
      <point x="43" y="75" type="line"/>
    </contour>
  </outline>
</glyph>
<glyph name="lozenge" format="1">
  <advance width="664.65517"/>
  <unicode hex="25CA"/>
  <outline>
    <contour>
      <point x="297" y="0" type="line"/>
      <point x="370" y="0" type="line"/>
      <point x="614" y="345" type="line"/>
      <point x="370" y="690" type="line"/>
      <point x="297" y="690" type="line"/>
      <point x="51" y="345" type="line"/>
    </contour>
    <contour>
      <point x="322" y="62" type="line"/>
      <point x="123" y="345" type="line"/>
      <point x="322" y="628" type="line"/>
      <point x="344" y="628" type="line"/>
      <point x="542" y="345" type="line"/>
      <point x="344" y="62" type="line"/>
    </contour>
  </outline>
</glyph>
<glyph name="fi" format="1">
  <advance width="648.5431"/>
  <unicode hex="FB01"/>
  <outline>
    <contour>
      <point x="138" y="643" type="curve" smooth="yes"/>
      <point x="138" y="0" type="line"/>
      <point x="199" y="0" type="line"/>
      <point x="199" y="639" type="line"/>
      <point x="349" y="639" type="line"/>
      <point x="349" y="690" type="line"/>
      <point x="184" y="690" type="line" smooth="yes"/>
      <point x="154" y="690"/>
      <point x="138" y="674"/>
    </contour>
    <contour>
      <point x="39" y="0" type="line"/>
      <point x="334" y="0" type="line"/>
      <point x="334" y="51" type="line"/>
      <point x="39" y="51" type="line"/>
    </contour>
    <contour>
      <point x="32" y="483" type="line"/>
      <point x="349" y="483" type="line"/>
      <point x="349" y="534" type="line"/>
      <point x="32" y="534" type="line"/>
    </contour>
    <contour>
      <point x="495" y="0" type="line"/>
      <point x="557" y="0" type="line"/>
      <point x="557" y="534" type="line"/>
      <point x="401" y="534" type="line"/>
      <point x="401" y="483" type="line"/>
      <point x="495" y="483" type="line"/>
    </contour>
    <contour>
      <point x="484" y="615" type="line"/>
      <point x="564" y="615" type="line"/>
      <point x="564" y="690" type="line"/>
      <point x="484" y="690" type="line"/>
    </contour>
    <contour>
      <point x="315" y="534" type="line"/>
      <point x="315" y="483" type="line"/>
      <point x="423" y="483" type="line"/>
      <point x="423" y="534" type="line"/>
    </contour>
  </outline>
</glyph>
<glyph name="A.ss03" format="1">
  <advance width="624.96552"/>
  <outline>
    <contour>
      <point x="32" y="0" type="line"/>
      <point x="98" y="0" type="line"/>
      <point x="301" y="633" type="line"/>
      <point x="322" y="633" type="line"/>
      <point x="525" y="0" type="line"/>
      <point x="593" y="0" type="line"/>
      <point x="370" y="690" type="line"/>
      <point x="255" y="690" type="line"/>
    </contour>
    <contour>
      <point x="126" y="188" type="line"/>
      <point x="499" y="188" type="line"/>
      <point x="485" y="238" type="line"/>
      <point x="140" y="238" type="line"/>
    </contour>
    <contour>
      <point x="593" y="0" type="move" name="ogonek"/>
    </contour>
    <contour>
      <point x="311" y="690" type="move" name="top"/>
    </contour>
  </outline>
</glyph>
<glyph name="B.ss03" format="1">
  <advance width="626.27586"/>
  <outline>
    <contour>
      <point x="102" y="0" type="line"/>
      <point x="383" y="0" type="line" smooth="yes"/>
      <point x="496" y="0"/>
      <point x="562" y="69"/>
      <point x="562" y="190" type="curve" smooth="yes"/>
      <point x="562" y="282"/>
      <point x="524" y="331"/>
      <point x="449" y="341" type="curve"/>
      <point x="449" y="363" type="line"/>
      <point x="520" y="373"/>
      <point x="555" y="419"/>
      <point x="555" y="507" type="curve" smooth="yes"/>
      <point x="555" y="624"/>
      <point x="492" y="690"/>
      <point x="380" y="690" type="curve"/>
      <point x="102" y="690" type="line"/>
    </contour>
    <contour>
      <point x="377" y="53" type="curve" smooth="yes"/>
      <point x="165" y="53" type="line"/>
      <point x="165" y="327" type="line"/>
      <point x="377" y="327" type="line" smooth="yes"/>
      <point x="456" y="327"/>
      <point x="496" y="285"/>
      <point x="496" y="203" type="curve" smooth="yes"/>
      <point x="496" y="176" type="line" smooth="yes"/>
      <point x="496" y="95"/>
      <point x="456" y="53"/>
    </contour>
    <contour>
      <point x="375" y="377" type="curve" smooth="yes"/>
      <point x="165" y="377" type="line"/>
      <point x="165" y="637" type="line"/>
      <point x="375" y="637" type="line" smooth="yes"/>
      <point x="450" y="637"/>
      <point x="490" y="597"/>
      <point x="490" y="519" type="curve" smooth="yes"/>
      <point x="490" y="496" type="line" smooth="yes"/>
      <point x="490" y="418"/>
      <point x="450" y="377"/>
    </contour>
  </outline>
</glyph>
<glyph name="E.ss03" format="1">
  <advance width="598.27586"/>
  <outline>
    <contour>
      <point x="475" y="494" type="line"/>
      <point x="531" y="494" type="line"/>
      <point x="531" y="690" type="line"/>
      <point x="100" y="690" type="line"/>
      <point x="100" y="0" type="line"/>
      <point x="535" y="0" type="line"/>
      <point x="535" y="200" type="line"/>
      <point x="479" y="200" type="line"/>
      <point x="479" y="53" type="line"/>
      <point x="164" y="53" type="line"/>
      <point x="164" y="327" type="line"/>
      <point x="434" y="327" type="line"/>
      <point x="434" y="377" type="line"/>
      <point x="164" y="377" type="line"/>
      <point x="164" y="637" type="line"/>
      <point x="475" y="637" type="line"/>
    </contour>
    <contour>
      <point x="535" y="0" type="move" name="ogonek"/>
    </contour>
    <contour>
      <point x="313" y="690" type="move" name="top"/>
    </contour>
  </outline>
</glyph>
<glyph name="F.ss03" format="1">
  <advance width="578.15517"/>
  <outline>
    <contour>
      <point x="100" y="0" type="line"/>
      <point x="163" y="0" type="line"/>
      <point x="163" y="327" type="line"/>
      <point x="433" y="327" type="line"/>
      <point x="433" y="377" type="line"/>
      <point x="163" y="377" type="line"/>
      <point x="163" y="637" type="line"/>
      <point x="475" y="637" type="line"/>
      <point x="475" y="494" type="line"/>
      <point x="531" y="494" type="line"/>
      <point x="531" y="690" type="line"/>
      <point x="100" y="690" type="line"/>
    </contour>
  </outline>
</glyph>
<glyph name="N.ss03" format="1">
  <advance width="677.02586"/>
  <outline>
    <contour>
      <point x="101" y="0" type="line"/>
      <point x="163" y="0" type="line"/>
      <point x="163" y="492" type="line" smooth="yes"/>
      <point x="163" y="523"/>
      <point x="160" y="555"/>
      <point x="153" y="618" type="curve"/>
      <point x="174" y="618" type="line"/>
      <point x="516" y="0" type="line"/>
      <point x="576" y="0" type="line"/>
      <point x="576" y="690" type="line"/>
      <point x="514" y="690" type="line"/>
      <point x="514" y="283" type="line" smooth="yes"/>
      <point x="514" y="252"/>
      <point x="517" y="220"/>
      <point x="524" y="157" type="curve"/>
      <point x="503" y="157" type="line"/>
      <point x="200" y="690" type="line"/>
      <point x="101" y="690" type="line"/>
    </contour>
    <contour>
      <point x="338" y="690" type="move" name="top"/>
    </contour>
  </outline>
</glyph>
<glyph name="U.ss03" format="1">
  <advance width="683.65517"/>
  <outline>
    <contour>
      <point x="308" y="-10" type="curve" smooth="yes"/>
      <point x="404" y="-10"/>
      <point x="464" y="23"/>
      <point x="501" y="94" type="curve"/>
      <point x="522" y="94" type="line"/>
      <point x="522" y="47" type="line" smooth="yes"/>
      <point x="522" y="16"/>
      <point x="539" y="0"/>
      <point x="569" y="0" type="curve" smooth="yes"/>
      <point x="665" y="0" type="line"/>
      <point x="665" y="53" type="line"/>
      <point x="574" y="53" type="line"/>
      <point x="574" y="690" type="line"/>
      <point x="510" y="690" type="line"/>
      <point x="510" y="245" type="line" smooth="yes"/>
      <point x="510" y="107"/>
      <point x="456" y="47"/>
      <point x="334" y="47" type="curve" smooth="yes"/>
      <point x="212" y="47"/>
      <point x="158" y="107"/>
      <point x="158" y="245" type="curve" smooth="yes"/>
      <point x="158" y="690" type="line"/>
      <point x="94" y="690" type="line"/>
      <point x="94" y="229" type="line" smooth="yes"/>
      <point x="94" y="72"/>
      <point x="168" y="-10"/>
    </contour>
    <contour>
      <point x="334" y="690" type="move" name="top"/>
    </contour>
  </outline>
</glyph>
<glyph name=".notdef" format="1">
  <advance width="663.59483"/>
  <outline>
    <contour>
      <point x="107" y="0" type="line"/>
      <point x="556" y="0" type="line"/>
      <point x="556" y="690" type="line"/>
      <point x="107" y="690" type="line"/>
    </contour>
    <contour>
      <point x="162" y="51" type="line"/>
      <point x="162" y="639" type="line"/>
      <point x="502" y="639" type="line"/>
      <point x="502" y="51" type="line"/>
    </contour>
  </outline>
</glyph>
<glyph name="f_b" format="1">
  <advance width="973.08621"/>
  <outline>
    <contour>
      <point x="138" y="643" type="curve" smooth="yes"/>
      <point x="138" y="0" type="line"/>
      <point x="199" y="0" type="line"/>
      <point x="199" y="639" type="line"/>
      <point x="349" y="639" type="line"/>
      <point x="349" y="690" type="line"/>
      <point x="184" y="690" type="line" smooth="yes"/>
      <point x="154" y="690"/>
      <point x="138" y="674"/>
    </contour>
    <contour>
      <point x="39" y="0" type="line"/>
      <point x="334" y="0" type="line"/>
      <point x="334" y="51" type="line"/>
      <point x="39" y="51" type="line"/>
    </contour>
    <contour>
      <point x="32" y="483" type="line"/>
      <point x="349" y="483" type="line"/>
      <point x="349" y="534" type="line"/>
      <point x="32" y="534" type="line"/>
    </contour>
    <contour>
      <point x="703" y="-10" type="curve" smooth="yes"/>
      <point x="838" y="-10"/>
      <point x="917" y="88"/>
      <point x="917" y="267" type="curve" smooth="yes"/>
      <point x="917" y="446"/>
      <point x="838" y="544"/>
      <point x="703" y="544" type="curve" smooth="yes"/>
      <point x="626" y="544"/>
      <point x="575" y="513"/>
      <point x="539" y="445" type="curve"/>
      <point x="517" y="445" type="line"/>
      <point x="524" y="508"/>
      <point x="527" y="540"/>
      <point x="527" y="571" type="curve" smooth="yes"/>
      <point x="527" y="690" type="line"/>
      <point x="387" y="690" type="line"/>
      <point x="387" y="639" type="line"/>
      <point x="466" y="639" type="line"/>
      <point x="466" y="0" type="line"/>
      <point x="515" y="0" type="line"/>
      <point x="515" y="93" type="line"/>
      <point x="537" y="93" type="line"/>
      <point x="574" y="23"/>
      <point x="626" y="-10"/>
    </contour>
    <contour>
      <point x="690" y="45" type="curve" smooth="yes"/>
      <point x="578" y="45"/>
      <point x="527" y="107"/>
      <point x="527" y="245" type="curve" smooth="yes"/>
      <point x="527" y="289" type="line" smooth="yes"/>
      <point x="527" y="427"/>
      <point x="578" y="489"/>
      <point x="690" y="489" type="curve" smooth="yes"/>
      <point x="801" y="489"/>
      <point x="852" y="427"/>
      <point x="852" y="289" type="curve" smooth="yes"/>
      <point x="852" y="245" type="line" smooth="yes"/>
      <point x="852" y="107"/>
      <point x="801" y="45"/>
    </contour>
    <contour>
      <point x="311" y="690" type="line"/>
      <point x="311" y="639" type="line"/>
      <point x="433" y="639" type="line"/>
      <point x="433" y="690" type="line"/>
    </contour>
  </outline>
</glyph>
<glyph name="f_f" format="1">
  <advance width="753.32759"/>
  <outline>
    <contour>
      <point x="138" y="643" type="curve" smooth="yes"/>
      <point x="138" y="0" type="line"/>
      <point x="199" y="0" type="line"/>
      <point x="199" y="639" type="line"/>
      <point x="349" y="639" type="line"/>
      <point x="349" y="690" type="line"/>
      <point x="184" y="690" type="line" smooth="yes"/>
      <point x="154" y="690"/>
      <point x="138" y="674"/>
    </contour>
    <contour>
      <point x="39" y="0" type="line"/>
      <point x="334" y="0" type="line"/>
      <point x="334" y="51" type="line"/>
      <point x="39" y="51" type="line"/>
    </contour>
    <contour>
      <point x="32" y="483" type="line"/>
      <point x="349" y="483" type="line"/>
      <point x="349" y="534" type="line"/>
      <point x="32" y="534" type="line"/>
    </contour>
    <contour>
      <point x="514" y="643" type="curve" smooth="yes"/>
      <point x="514" y="0" type="line"/>
      <point x="576" y="0" type="line"/>
      <point x="576" y="639" type="line"/>
      <point x="726" y="639" type="line"/>
      <point x="726" y="690" type="line"/>
      <point x="561" y="690" type="line" smooth="yes"/>
      <point x="531" y="690"/>
      <point x="514" y="674"/>
    </contour>
    <contour>
      <point x="416" y="0" type="line"/>
      <point x="711" y="0" type="line"/>
      <point x="711" y="51" type="line"/>
      <point x="416" y="51" type="line"/>
    </contour>
    <contour>
      <point x="409" y="483" type="line"/>
      <point x="726" y="483" type="line"/>
      <point x="726" y="534" type="line"/>
      <point x="409" y="534" type="line"/>
    </contour>
    <contour>
      <point x="282" y="483" type="line"/>
      <point x="484" y="483" type="line"/>
      <point x="484" y="534" type="line"/>
      <point x="282" y="534" type="line"/>
    </contour>
  </outline>
</glyph>
<glyph name="f_h" format="1">
  <advance width="965.90517"/>
  <outline>
    <contour>
      <point x="138" y="643" type="curve" smooth="yes"/>
      <point x="138" y="0" type="line"/>
      <point x="199" y="0" type="line"/>
      <point x="199" y="639" type="line"/>
      <point x="349" y="639" type="line"/>
      <point x="349" y="690" type="line"/>
      <point x="184" y="690" type="line" smooth="yes"/>
      <point x="154" y="690"/>
      <point x="138" y="674"/>
    </contour>
    <contour>
      <point x="39" y="0" type="line"/>
      <point x="334" y="0" type="line"/>
      <point x="334" y="51" type="line"/>
      <point x="39" y="51" type="line"/>
    </contour>
    <contour>
      <point x="32" y="483" type="line"/>
      <point x="349" y="483" type="line"/>
      <point x="349" y="534" type="line"/>
      <point x="32" y="534" type="line"/>
    </contour>
    <contour>
      <point x="465" y="0" type="line"/>
      <point x="527" y="0" type="line"/>
      <point x="527" y="327" type="line" smooth="yes"/>
      <point x="527" y="440"/>
      <point x="570" y="489"/>
      <point x="667" y="489" type="curve" smooth="yes"/>
      <point x="764" y="489"/>
      <point x="806" y="440"/>
      <point x="806" y="327" type="curve" smooth="yes"/>
      <point x="806" y="0" type="line"/>
      <point x="947" y="0" type="line"/>
      <point x="947" y="51" type="line"/>
      <point x="868" y="51" type="line"/>
      <point x="868" y="341" type="line" smooth="yes"/>
      <point x="868" y="475"/>
      <point x="808" y="544"/>
      <point x="693" y="544" type="curve" smooth="yes"/>
      <point x="617" y="544"/>
      <point x="568" y="515"/>
      <point x="538" y="457" type="curve"/>
      <point x="517" y="457" type="line"/>
      <point x="524" y="520"/>
      <point x="527" y="552"/>
      <point x="527" y="583" type="curve" smooth="yes"/>
      <point x="527" y="690" type="line"/>
      <point x="386" y="690" type="line"/>
      <point x="386" y="639" type="line"/>
      <point x="465" y="639" type="line"/>
    </contour>
    <contour>
      <point x="311" y="690" type="line"/>
      <point x="311" y="639" type="line"/>
      <point x="431" y="639" type="line"/>
      <point x="431" y="690" type="line"/>
    </contour>
  </outline>
</glyph>
<glyph name="f_k" format="1">
  <advance width="948.78448"/>
  <outline>
    <contour>
      <point x="138" y="643" type="curve" smooth="yes"/>
      <point x="138" y="0" type="line"/>
      <point x="199" y="0" type="line"/>
      <point x="199" y="639" type="line"/>
      <point x="349" y="639" type="line"/>
      <point x="349" y="690" type="line"/>
      <point x="184" y="690" type="line" smooth="yes"/>
      <point x="154" y="690"/>
      <point x="138" y="674"/>
    </contour>
    <contour>
      <point x="39" y="0" type="line"/>
      <point x="334" y="0" type="line"/>
      <point x="334" y="51" type="line"/>
      <point x="39" y="51" type="line"/>
    </contour>
    <contour>
      <point x="32" y="483" type="line"/>
      <point x="349" y="483" type="line"/>
      <point x="349" y="534" type="line"/>
      <point x="32" y="534" type="line"/>
    </contour>
    <contour>
      <point x="466" y="0" type="line"/>
      <point x="528" y="0" type="line"/>
      <point x="528" y="252" type="line"/>
      <point x="614" y="252" type="line"/>
      <point x="814" y="0" type="line"/>
      <point x="932" y="0" type="line"/>
      <point x="932" y="51" type="line"/>
      <point x="853" y="51" type="line"/>
      <point x="648" y="307" type="line"/>
      <point x="654" y="257" type="line"/>
      <point x="911" y="534" type="line"/>
      <point x="828" y="534" type="line"/>
      <point x="614" y="300" type="line"/>
      <point x="528" y="300" type="line"/>
      <point x="528" y="690" type="line"/>
      <point x="387" y="690" type="line"/>
      <point x="387" y="639" type="line"/>
      <point x="466" y="639" type="line"/>
    </contour>
    <contour>
      <point x="311" y="690" type="line"/>
      <point x="311" y="639" type="line"/>
      <point x="431" y="639" type="line"/>
      <point x="431" y="690" type="line"/>
    </contour>
  </outline>
</glyph>
<glyph name="f_t" format="1">
  <advance width="742.65517"/>
  <outline>
    <contour>
      <point x="138" y="643" type="curve" smooth="yes"/>
      <point x="138" y="0" type="line"/>
      <point x="199" y="0" type="line"/>
      <point x="199" y="639" type="line"/>
      <point x="349" y="639" type="line"/>
      <point x="349" y="690" type="line"/>
      <point x="184" y="690" type="line" smooth="yes"/>
      <point x="154" y="690"/>
      <point x="138" y="674"/>
    </contour>
    <contour>
      <point x="39" y="0" type="line"/>
      <point x="334" y="0" type="line"/>
      <point x="334" y="51" type="line"/>
      <point x="39" y="51" type="line"/>
    </contour>
    <contour>
      <point x="32" y="483" type="line"/>
      <point x="349" y="483" type="line"/>
      <point x="349" y="534" type="line"/>
      <point x="32" y="534" type="line"/>
    </contour>
    <contour>
      <point x="550" y="0" type="curve" smooth="yes"/>
      <point x="707" y="0" type="line"/>
      <point x="707" y="51" type="line"/>
      <point x="565" y="51" type="line"/>
      <point x="565" y="641" type="line"/>
      <point x="529" y="641" type="line"/>
      <point x="503" y="534" type="line"/>
      <point x="503" y="47" type="line" smooth="yes"/>
      <point x="503" y="16"/>
      <point x="520" y="0"/>
    </contour>
    <contour>
      <point x="394" y="483" type="line"/>
      <point x="707" y="483" type="line"/>
      <point x="707" y="534" type="line"/>
      <point x="394" y="534" type="line"/>
    </contour>
    <contour>
      <point x="312" y="534" type="line"/>
      <point x="312" y="483" type="line"/>
      <point x="419" y="483" type="line"/>
      <point x="419" y="534" type="line"/>
    </contour>
  </outline>
</glyph>
<glyph name="iacute_j.loclNLD" format="1">
  <advance width="544"/>
  <outline>
    <component base="idotless"/>
    <component base="acutecomb" xOffset="-53"/>
    <component base="jdotless" xOffset="272"/>
    <component base="acutecomb" xOffset="219"/>
    <contour>
      <point x="419" y="534" type="move" name="top"/>
    </contour>
  </outline>
</glyph>
<glyph name="t_t" format="1">
  <advance width="730.43103"/>
  <outline>
    <contour>
      <point x="173" y="0" type="curve" smooth="yes"/>
      <point x="329" y="0" type="line"/>
      <point x="329" y="51" type="line"/>
      <point x="188" y="51" type="line"/>
      <point x="188" y="641" type="line"/>
      <point x="151" y="641" type="line"/>
      <point x="126" y="534" type="line"/>
      <point x="126" y="47" type="line" smooth="yes"/>
      <point x="126" y="16"/>
      <point x="142" y="0"/>
    </contour>
    <contour>
      <point x="17" y="483" type="line"/>
      <point x="329" y="483" type="line"/>
      <point x="329" y="534" type="line"/>
      <point x="17" y="534" type="line"/>
    </contour>
    <contour>
      <point x="538" y="0" type="curve" smooth="yes"/>
      <point x="695" y="0" type="line"/>
      <point x="695" y="51" type="line"/>
      <point x="553" y="51" type="line"/>
      <point x="553" y="641" type="line"/>
      <point x="516" y="641" type="line"/>
      <point x="491" y="534" type="line"/>
      <point x="491" y="47" type="line" smooth="yes"/>
      <point x="491" y="16"/>
      <point x="507" y="0"/>
    </contour>
    <contour>
      <point x="382" y="483" type="line"/>
      <point x="695" y="483" type="line"/>
      <point x="695" y="534" type="line"/>
      <point x="382" y="534" type="line"/>
    </contour>
    <contour>
      <point x="169" y="534" type="line"/>
      <point x="169" y="483" type="line"/>
      <point x="508" y="483" type="line"/>
      <point x="508" y="534" type="line"/>
    </contour>
  </outline>
</glyph>
